<mxfile host="app.diagrams.net" modified="2024-03-30T03:56:29.859Z" agent="Mozilla/5.0 (Windows NT 10.0; Win64; x64) AppleWebKit/537.36 (KHTML, like Gecko) Chrome/123.0.0.0 Safari/537.36 Edg/123.0.0.0" etag="OwE1VIGkAjijjDOj9Vrr" version="24.2.1" type="github">
  <diagram name="第 1 页" id="D5T53ktmF-T9hPa6oCvl">
    <mxGraphModel dx="1629" dy="428" grid="1" gridSize="10" guides="1" tooltips="1" connect="1" arrows="1" fold="1" page="1" pageScale="1" pageWidth="827" pageHeight="1169" math="0" shadow="0">
      <root>
        <mxCell id="0" />
        <mxCell id="1" parent="0" />
        <mxCell id="tknetBVRxJH12qnPuVGs-4" style="edgeStyle=orthogonalEdgeStyle;rounded=0;orthogonalLoop=1;jettySize=auto;html=1;exitX=1;exitY=0.5;exitDx=0;exitDy=0;entryX=0;entryY=0.5;entryDx=0;entryDy=0;" edge="1" parent="1" source="tknetBVRxJH12qnPuVGs-1" target="tknetBVRxJH12qnPuVGs-3">
          <mxGeometry relative="1" as="geometry" />
        </mxCell>
        <mxCell id="tknetBVRxJH12qnPuVGs-1" value="" style="rounded=0;whiteSpace=wrap;html=1;" vertex="1" parent="1">
          <mxGeometry x="90" y="110" width="130" height="60" as="geometry" />
        </mxCell>
        <mxCell id="tknetBVRxJH12qnPuVGs-2" value="records&lt;div&gt;0804B080&lt;br&gt;&lt;/div&gt;" style="text;strokeColor=none;align=center;fillColor=none;html=1;verticalAlign=middle;whiteSpace=wrap;rounded=0;" vertex="1" parent="1">
          <mxGeometry x="30" y="125" width="60" height="30" as="geometry" />
        </mxCell>
        <mxCell id="tknetBVRxJH12qnPuVGs-3" value="rec_int_print" style="rounded=0;whiteSpace=wrap;html=1;" vertex="1" parent="1">
          <mxGeometry x="420" y="125" width="120" height="30" as="geometry" />
        </mxCell>
        <mxCell id="tknetBVRxJH12qnPuVGs-5" value="0x11" style="rounded=0;whiteSpace=wrap;html=1;" vertex="1" parent="1">
          <mxGeometry x="420" y="95" width="120" height="30" as="geometry" />
        </mxCell>
        <mxCell id="tknetBVRxJH12qnPuVGs-6" value="" style="rounded=0;whiteSpace=wrap;html=1;" vertex="1" parent="1">
          <mxGeometry x="420" y="65" width="120" height="30" as="geometry" />
        </mxCell>
        <mxCell id="tknetBVRxJH12qnPuVGs-7" value="malloc(0xc)" style="text;strokeColor=none;align=center;fillColor=none;html=1;verticalAlign=middle;whiteSpace=wrap;rounded=0;" vertex="1" parent="1">
          <mxGeometry x="300" y="95" width="60" height="30" as="geometry" />
        </mxCell>
        <mxCell id="tknetBVRxJH12qnPuVGs-8" value="0xc=0x8+0x4&lt;div&gt;chunk+ 0x8&lt;br&gt;&lt;div&gt;所以就是0x14相当于0x10&lt;/div&gt;&lt;/div&gt;" style="text;strokeColor=none;align=center;fillColor=none;html=1;verticalAlign=middle;whiteSpace=wrap;rounded=0;" vertex="1" parent="1">
          <mxGeometry x="235" y="180" width="190" height="70" as="geometry" />
        </mxCell>
        <mxCell id="tknetBVRxJH12qnPuVGs-9" value="rec_int_free" style="rounded=0;whiteSpace=wrap;html=1;" vertex="1" parent="1">
          <mxGeometry x="420" y="155" width="120" height="30" as="geometry" />
        </mxCell>
        <mxCell id="tknetBVRxJH12qnPuVGs-11" style="edgeStyle=orthogonalEdgeStyle;rounded=0;orthogonalLoop=1;jettySize=auto;html=1;exitX=1;exitY=0.5;exitDx=0;exitDy=0;entryX=0;entryY=0.5;entryDx=0;entryDy=0;" edge="1" parent="1" source="tknetBVRxJH12qnPuVGs-10" target="tknetBVRxJH12qnPuVGs-15">
          <mxGeometry relative="1" as="geometry">
            <mxPoint x="650" y="200" as="targetPoint" />
          </mxGeometry>
        </mxCell>
        <mxCell id="tknetBVRxJH12qnPuVGs-10" value="value/ str_content" style="rounded=0;whiteSpace=wrap;html=1;" vertex="1" parent="1">
          <mxGeometry x="420" y="185" width="120" height="30" as="geometry" />
        </mxCell>
        <mxCell id="tknetBVRxJH12qnPuVGs-13" value="" style="rounded=0;whiteSpace=wrap;html=1;" vertex="1" parent="1">
          <mxGeometry x="680" y="125" width="120" height="30" as="geometry" />
        </mxCell>
        <mxCell id="tknetBVRxJH12qnPuVGs-14" value="" style="rounded=0;whiteSpace=wrap;html=1;" vertex="1" parent="1">
          <mxGeometry x="680" y="155" width="120" height="30" as="geometry" />
        </mxCell>
        <mxCell id="tknetBVRxJH12qnPuVGs-15" value="" style="rounded=0;whiteSpace=wrap;html=1;" vertex="1" parent="1">
          <mxGeometry x="680" y="185" width="120" height="30" as="geometry" />
        </mxCell>
        <mxCell id="tknetBVRxJH12qnPuVGs-16" value="基本结构" style="text;strokeColor=none;align=center;fillColor=none;html=1;verticalAlign=middle;whiteSpace=wrap;rounded=0;" vertex="1" parent="1">
          <mxGeometry x="30" width="60" height="30" as="geometry" />
        </mxCell>
        <mxCell id="tknetBVRxJH12qnPuVGs-33" style="edgeStyle=orthogonalEdgeStyle;rounded=0;orthogonalLoop=1;jettySize=auto;html=1;exitX=1;exitY=0.5;exitDx=0;exitDy=0;entryX=0;entryY=0.5;entryDx=0;entryDy=0;" edge="1" parent="1" source="tknetBVRxJH12qnPuVGs-34" target="tknetBVRxJH12qnPuVGs-36">
          <mxGeometry relative="1" as="geometry" />
        </mxCell>
        <mxCell id="tknetBVRxJH12qnPuVGs-34" value="160" style="rounded=0;whiteSpace=wrap;html=1;" vertex="1" parent="1">
          <mxGeometry x="89" y="385" width="130" height="60" as="geometry" />
        </mxCell>
        <mxCell id="tknetBVRxJH12qnPuVGs-35" value="records&lt;div&gt;0804B080&lt;br&gt;&lt;/div&gt;" style="text;strokeColor=none;align=center;fillColor=none;html=1;verticalAlign=middle;whiteSpace=wrap;rounded=0;" vertex="1" parent="1">
          <mxGeometry x="29" y="400" width="60" height="30" as="geometry" />
        </mxCell>
        <mxCell id="tknetBVRxJH12qnPuVGs-36" value="rec_int_print" style="rounded=0;whiteSpace=wrap;html=1;" vertex="1" parent="1">
          <mxGeometry x="419" y="400" width="120" height="30" as="geometry" />
        </mxCell>
        <mxCell id="tknetBVRxJH12qnPuVGs-37" value="0x11" style="rounded=0;whiteSpace=wrap;html=1;" vertex="1" parent="1">
          <mxGeometry x="419" y="370" width="120" height="30" as="geometry" />
        </mxCell>
        <mxCell id="tknetBVRxJH12qnPuVGs-38" value="" style="rounded=0;whiteSpace=wrap;html=1;" vertex="1" parent="1">
          <mxGeometry x="419" y="340" width="120" height="30" as="geometry" />
        </mxCell>
        <mxCell id="tknetBVRxJH12qnPuVGs-39" value="malloc(0xc)" style="text;strokeColor=none;align=center;fillColor=none;html=1;verticalAlign=middle;whiteSpace=wrap;rounded=0;" vertex="1" parent="1">
          <mxGeometry x="299" y="370" width="60" height="30" as="geometry" />
        </mxCell>
        <mxCell id="tknetBVRxJH12qnPuVGs-40" value="0xc=0x8+0x4&lt;div&gt;chunk+ 0x8&lt;br&gt;&lt;div&gt;所以就是0x14相当于0x10&lt;/div&gt;&lt;/div&gt;" style="text;strokeColor=none;align=center;fillColor=none;html=1;verticalAlign=middle;whiteSpace=wrap;rounded=0;" vertex="1" parent="1">
          <mxGeometry x="234" y="455" width="190" height="70" as="geometry" />
        </mxCell>
        <mxCell id="tknetBVRxJH12qnPuVGs-41" value="rec_int_free" style="rounded=0;whiteSpace=wrap;html=1;" vertex="1" parent="1">
          <mxGeometry x="419" y="430" width="120" height="30" as="geometry" />
        </mxCell>
        <mxCell id="tknetBVRxJH12qnPuVGs-42" style="edgeStyle=orthogonalEdgeStyle;rounded=0;orthogonalLoop=1;jettySize=auto;html=1;exitX=1;exitY=0.5;exitDx=0;exitDy=0;entryX=0;entryY=0.5;entryDx=0;entryDy=0;" edge="1" parent="1" source="tknetBVRxJH12qnPuVGs-43" target="tknetBVRxJH12qnPuVGs-46">
          <mxGeometry relative="1" as="geometry">
            <mxPoint x="649" y="475" as="targetPoint" />
          </mxGeometry>
        </mxCell>
        <mxCell id="tknetBVRxJH12qnPuVGs-43" value="170" style="rounded=0;whiteSpace=wrap;html=1;" vertex="1" parent="1">
          <mxGeometry x="419" y="460" width="120" height="30" as="geometry" />
        </mxCell>
        <mxCell id="tknetBVRxJH12qnPuVGs-44" value="" style="rounded=0;whiteSpace=wrap;html=1;" vertex="1" parent="1">
          <mxGeometry x="679" y="400" width="120" height="30" as="geometry" />
        </mxCell>
        <mxCell id="tknetBVRxJH12qnPuVGs-45" value="0x91" style="rounded=0;whiteSpace=wrap;html=1;" vertex="1" parent="1">
          <mxGeometry x="679" y="430" width="120" height="30" as="geometry" />
        </mxCell>
        <mxCell id="tknetBVRxJH12qnPuVGs-46" value="aaaa" style="rounded=0;whiteSpace=wrap;html=1;" vertex="1" parent="1">
          <mxGeometry x="679" y="460" width="120" height="30" as="geometry" />
        </mxCell>
        <mxCell id="tknetBVRxJH12qnPuVGs-47" style="edgeStyle=orthogonalEdgeStyle;rounded=0;orthogonalLoop=1;jettySize=auto;html=1;exitX=1;exitY=0.5;exitDx=0;exitDy=0;entryX=0;entryY=0.5;entryDx=0;entryDy=0;" edge="1" parent="1" source="tknetBVRxJH12qnPuVGs-48" target="tknetBVRxJH12qnPuVGs-50">
          <mxGeometry relative="1" as="geometry" />
        </mxCell>
        <mxCell id="tknetBVRxJH12qnPuVGs-48" value="200" style="rounded=0;whiteSpace=wrap;html=1;" vertex="1" parent="1">
          <mxGeometry x="89" y="665" width="130" height="60" as="geometry" />
        </mxCell>
        <mxCell id="tknetBVRxJH12qnPuVGs-49" value="records&lt;div&gt;0804B080&lt;br&gt;&lt;/div&gt;" style="text;strokeColor=none;align=center;fillColor=none;html=1;verticalAlign=middle;whiteSpace=wrap;rounded=0;" vertex="1" parent="1">
          <mxGeometry x="29" y="680" width="60" height="30" as="geometry" />
        </mxCell>
        <mxCell id="tknetBVRxJH12qnPuVGs-50" value="rec_int_print" style="rounded=0;whiteSpace=wrap;html=1;" vertex="1" parent="1">
          <mxGeometry x="419" y="680" width="120" height="30" as="geometry" />
        </mxCell>
        <mxCell id="tknetBVRxJH12qnPuVGs-51" value="0x11" style="rounded=0;whiteSpace=wrap;html=1;" vertex="1" parent="1">
          <mxGeometry x="419" y="650" width="120" height="30" as="geometry" />
        </mxCell>
        <mxCell id="tknetBVRxJH12qnPuVGs-52" value="" style="rounded=0;whiteSpace=wrap;html=1;" vertex="1" parent="1">
          <mxGeometry x="419" y="620" width="120" height="30" as="geometry" />
        </mxCell>
        <mxCell id="tknetBVRxJH12qnPuVGs-53" value="malloc(0xc)" style="text;strokeColor=none;align=center;fillColor=none;html=1;verticalAlign=middle;whiteSpace=wrap;rounded=0;" vertex="1" parent="1">
          <mxGeometry x="299" y="650" width="60" height="30" as="geometry" />
        </mxCell>
        <mxCell id="tknetBVRxJH12qnPuVGs-54" value="0xc=0x8+0x4&lt;div&gt;chunk+ 0x8&lt;br&gt;&lt;div&gt;所以就是0x14相当于0x10&lt;/div&gt;&lt;/div&gt;" style="text;strokeColor=none;align=center;fillColor=none;html=1;verticalAlign=middle;whiteSpace=wrap;rounded=0;" vertex="1" parent="1">
          <mxGeometry x="234" y="735" width="190" height="70" as="geometry" />
        </mxCell>
        <mxCell id="tknetBVRxJH12qnPuVGs-55" value="rec_int_free" style="rounded=0;whiteSpace=wrap;html=1;" vertex="1" parent="1">
          <mxGeometry x="419" y="710" width="120" height="30" as="geometry" />
        </mxCell>
        <mxCell id="tknetBVRxJH12qnPuVGs-56" style="edgeStyle=orthogonalEdgeStyle;rounded=0;orthogonalLoop=1;jettySize=auto;html=1;exitX=1;exitY=0.5;exitDx=0;exitDy=0;entryX=0;entryY=0.5;entryDx=0;entryDy=0;" edge="1" parent="1" source="tknetBVRxJH12qnPuVGs-57" target="tknetBVRxJH12qnPuVGs-60">
          <mxGeometry relative="1" as="geometry">
            <mxPoint x="649" y="755" as="targetPoint" />
          </mxGeometry>
        </mxCell>
        <mxCell id="tknetBVRxJH12qnPuVGs-57" value="210" style="rounded=0;whiteSpace=wrap;html=1;" vertex="1" parent="1">
          <mxGeometry x="419" y="740" width="120" height="30" as="geometry" />
        </mxCell>
        <mxCell id="tknetBVRxJH12qnPuVGs-58" value="" style="rounded=0;whiteSpace=wrap;html=1;" vertex="1" parent="1">
          <mxGeometry x="679" y="680" width="120" height="30" as="geometry" />
        </mxCell>
        <mxCell id="tknetBVRxJH12qnPuVGs-59" value="0x41" style="rounded=0;whiteSpace=wrap;html=1;" vertex="1" parent="1">
          <mxGeometry x="679" y="710" width="120" height="30" as="geometry" />
        </mxCell>
        <mxCell id="tknetBVRxJH12qnPuVGs-60" value="" style="rounded=0;whiteSpace=wrap;html=1;" vertex="1" parent="1">
          <mxGeometry x="679" y="740" width="120" height="30" as="geometry" />
        </mxCell>
        <mxCell id="tknetBVRxJH12qnPuVGs-61" style="edgeStyle=orthogonalEdgeStyle;rounded=0;orthogonalLoop=1;jettySize=auto;html=1;exitX=1;exitY=0.5;exitDx=0;exitDy=0;entryX=0;entryY=0.5;entryDx=0;entryDy=0;" edge="1" parent="1" source="tknetBVRxJH12qnPuVGs-62" target="tknetBVRxJH12qnPuVGs-64">
          <mxGeometry relative="1" as="geometry" />
        </mxCell>
        <mxCell id="tknetBVRxJH12qnPuVGs-62" value="250" style="rounded=0;whiteSpace=wrap;html=1;" vertex="1" parent="1">
          <mxGeometry x="89" y="975" width="130" height="60" as="geometry" />
        </mxCell>
        <mxCell id="tknetBVRxJH12qnPuVGs-63" value="records&lt;div&gt;0804B080&lt;br&gt;&lt;/div&gt;" style="text;strokeColor=none;align=center;fillColor=none;html=1;verticalAlign=middle;whiteSpace=wrap;rounded=0;" vertex="1" parent="1">
          <mxGeometry x="29" y="990" width="60" height="30" as="geometry" />
        </mxCell>
        <mxCell id="tknetBVRxJH12qnPuVGs-64" value="rec_int_print" style="rounded=0;whiteSpace=wrap;html=1;" vertex="1" parent="1">
          <mxGeometry x="419" y="990" width="120" height="30" as="geometry" />
        </mxCell>
        <mxCell id="tknetBVRxJH12qnPuVGs-65" value="0x11" style="rounded=0;whiteSpace=wrap;html=1;" vertex="1" parent="1">
          <mxGeometry x="419" y="960" width="120" height="30" as="geometry" />
        </mxCell>
        <mxCell id="tknetBVRxJH12qnPuVGs-66" value="" style="rounded=0;whiteSpace=wrap;html=1;" vertex="1" parent="1">
          <mxGeometry x="419" y="930" width="120" height="30" as="geometry" />
        </mxCell>
        <mxCell id="tknetBVRxJH12qnPuVGs-67" value="malloc(0xc)" style="text;strokeColor=none;align=center;fillColor=none;html=1;verticalAlign=middle;whiteSpace=wrap;rounded=0;" vertex="1" parent="1">
          <mxGeometry x="299" y="960" width="60" height="30" as="geometry" />
        </mxCell>
        <mxCell id="tknetBVRxJH12qnPuVGs-68" value="0xc=0x8+0x4&lt;div&gt;chunk+ 0x8&lt;br&gt;&lt;div&gt;所以就是0x14相当于0x10&lt;/div&gt;&lt;/div&gt;" style="text;strokeColor=none;align=center;fillColor=none;html=1;verticalAlign=middle;whiteSpace=wrap;rounded=0;" vertex="1" parent="1">
          <mxGeometry x="234" y="1045" width="190" height="70" as="geometry" />
        </mxCell>
        <mxCell id="tknetBVRxJH12qnPuVGs-69" value="rec_int_free" style="rounded=0;whiteSpace=wrap;html=1;" vertex="1" parent="1">
          <mxGeometry x="419" y="1020" width="120" height="30" as="geometry" />
        </mxCell>
        <mxCell id="tknetBVRxJH12qnPuVGs-71" value="0x1" style="rounded=0;whiteSpace=wrap;html=1;" vertex="1" parent="1">
          <mxGeometry x="419" y="1050" width="120" height="30" as="geometry" />
        </mxCell>
        <mxCell id="tknetBVRxJH12qnPuVGs-75" value="" style="endArrow=none;html=1;rounded=0;strokeWidth=3;" edge="1" parent="1">
          <mxGeometry width="50" height="50" relative="1" as="geometry">
            <mxPoint y="280" as="sourcePoint" />
            <mxPoint x="830" y="280" as="targetPoint" />
          </mxGeometry>
        </mxCell>
        <mxCell id="tknetBVRxJH12qnPuVGs-76" value="" style="shape=image;verticalLabelPosition=bottom;labelBackgroundColor=default;verticalAlign=top;aspect=fixed;imageAspect=0;image=data:image/png,iVBORw0KGgoAAAANSUhEUgAAAsQAAABTCAYAAACYqRFRAAAAAXNSR0IArs4c6QAAAARnQU1BAACxjwv8YQUAAAAJcEhZcwAADsMAAA7DAcdvqGQAADWKSURBVHhe7d0HfBRl/sfxz8y2JJveGyZAAAUJIKEJCEgTEAVEOA4sFBH8gygecqIoEaR5iJwFe0OF00NRqoACitRQQpUaWgoJ6X2T3f0/u9mEgCiL53my+7xfDElmn31m5plfdr8zO7tRmnvFWallT/ExWhgbOH6SJEmSJEmSJNemOr5KkiRJkiRJkluSgViSJEmSJElyazIQS5IkSZIkSW5NBmJJkiRJkiTJrclALEmSJEmSJLk1GYglSZIkSZIktyYDsSRJkiRJkuTWZCCWJEmSJEmS3Np1EYi9NQotDCpttKA45oVqFdp6KNwoI70kSZIkSZL0H7gu4mQjTw0PGFXaVQdiRaGTt4a/eKk0uI4DsdrwYT7O2cbzvbwccyRJkiRJkqQ/mjy/+j+joW6/XjTM28Da70sc8wSPGLomLmTJsb3syN3H+l3vM3nYjRirT43/0RQ/mo6dw4eHdrE9ezcrN8xhSCu/mjP1TjM2oM+LH/Dl6X1sv5DE8m/nMuzWgFoFqODbYiBPfL6MVan72ZG1k+Ub5jO8U8h/tUgNcX2ZtmcfK+YkII63LqVpyENbDtv/nPnF6QDzBxsdDYQ/2/6SJEmSJOmayUD8v6KJo2v/huSvXk1SsWMenrRMfIdZ93vx/eSRDOs0gn+s1tPz1Td57Pb/xVlklfBhc/nnrA4ULU7k8SHTWFnQgYlL59I3+hpKR/Gn0/z3mHavwrrHh/Ngn0l8lnoL45cu4N76mqo2mhh6zxhHy4K1vDl6LBNGLmCbthPjPp1Gr9DfP11qghrT85lX+OSHudxZT3/lgK964e1t5sDcBxjUqg/32qd+zFld6mjwZ9tfkiRJkiT9Fk6nmjZGDU/6aXghQMs8MSWK7+8xKHjYb1Xo6KPl5QANrS5LFh56Df8I1PKIaGhbWGujyt/8tMwUfbwk2s8Q/Qyu6aeKQaMyWPRnazPbX0tvneOGn1FoYdQyXbR7UfT1f14Kl2Qn8X1zTw2PieXNdbSZKpb3F4P9Jrtbxfr00Cv4XTEROUeN7M3sowdZvvB2Ah39KCHdSDy8ny/mtMH7Cn1rmtxBtxtz2fTFDsoc89A2oH2PKM4vWcBbX+zi6L4k1iTOY8XZYJq1i0GDjvYLd7D9q0E1y6lh7MM/MrcxtavuN63PFWkbMeDRjvDVDKbM+Jota79m4fCZfKd0ZNgDDcX6OLntPh256+4gDs1/ljfEdh3evoFFj8xgdWkCg+9vbO8H8yn+1a8b9418na9Wbmbr1x8z9+9fkGFsTrObap27VQNoNmY6C7dt4vsL+9l4YAnTx7XE/5Jt0hHWeThTv1rO6rQD7Mzdx6ajK3l53E1VyxL/1x+dyPjOJSwfMZHFJy32uT+j+OLrZ+H8wT0cO3SU4/bpOBkFjvZX3V+SJEmSJF0PnAvEikK0TiFSo2C2WDlltoVWEYJFmBzhodjDZYEVxD/Ej/bbEkTIjBbfiy92RSJDWEQ/dXQq0SIpmEXjsxYFvWjbToTtXtWhV7S521ulrfhZa7VyXrT7tQDnJ7YgT3RWJtaigYeGUWIF9I7bbvXWcr+nWKZq5WSFxb68QLG8xlrFHlYU8f2tepXe3hqe9Rf39VK5Sa3anmthSVvNCw8txjRoFokjYtGqofSYl0j3nHd5NnE7RbaBuYSGhv3vIDbrW9b9WBOHxaBkcOZUBaFdutHEp2otdHVvoUloHoeSzmLGwoW0TKxBwfjb9pxHIFH1gu0HE2pwMAFKJuczLL9hfa5MCWlBs/oWkr/Zhu/wt/jm5EcMCdvOliQLMW2b20OoM8tSjN5466wU5uTba8Su+CAHDlmJatKA6gsQrBWVYhurKXhFhmGsPMPpM9VzPWn69Pu8PqURp95+jvE9h5P4ThbNEt9k+v2RjmJWCRkwm/eXTaS1eTMfPjaB8f3GMPWZj/lme6oYQRszR2cPom+3yXy47hymXxoPMb4BxhJMmlCCfHU/r4ur7i9JkiRJkq4HzgXiWnYVm3mloJL5JVZMthBqUKirWKk6aaZgEP/X9VD5qwiZ3UUaFjeLuVbyLjsJl1Qk+siv5DNTVZBuIgK3LaR6iK8tbN9YLLyXb7a3+Vy0uTIrmwormVdgZnaxCFxiTrBYdpxYpkar0lWEakWE6qWinzdEIl9RUXWvalYRpN8vNLOmXKyfWMsm4r6jRTCe6qOhh9gQ51/0Fsve9CJTZqXQYuZ8psydzZPdz/DW6Nc5UOvy4Bq6JnTvF0P2itXsqZWHsWay8snnWGcYxhs7P2Xm/Dm8sXIEzH+Ul74pEg0sZKSkQ3g4wSLM+/V/gc92vky/OipqeAQhllRSz9pi2DWuzy9QQ0MJVAq5kFGGd51oAoOiifAvISu9RITlEHFwYWt19WVZs/ay97hC8+HDSYgwiJHW4BUVS7iPKD+9HrHLf0ZXvz9TZ3Qi8415LEupKh4ltDcPjYtm66QxzH13I8m7ktjw8hReXaXSekhXQm3VrL+FB57vg/emF3j43jks+exbtm3awvefLWb1zgJ7rdmJuvilHFxNDfbEcq6MhJdWsDYtmQ273uaxAbE1B1xX31+SJEmSJF0PrjkQV8syWTgrEoWiKkSKQJNnsWIWXz3Ezw1EwrF1HCMCk7ftjKtod+GyQFwtXYRSWzAxijvYcpG/CHq2wGGutJLiSCy/FlyqbyuxnQEWP9iWGyL+87AFRvG9udLC4V9Ytk22WM4aEfJn5ImgL0LzYZEnA8T63+GlIfYKQe2XlXNk/iQWbI+h35i2pM2byqKDV07y2ha9uD02k41f7hIHFbUpeIXHEumdwY8ffM2+HDHL7E2jgffQ9gZb+rRSfPoMuf4RRPj40rZ3K3SapnTsGoTBFljPn+Js9eWt17A+V1fJ4RmDubNJfxZsveyowu4qy6o8zIejZ7LZTwTHY8nsyDvI97teZ1C8SnlWFoWX7WDPm4cyd+VzNNg8hccTk6i+xFp7c3Mae/nQ+Y0f2JZzkO32aRsz7vZGExFp3+9qdDOaRpnZt/QbUVuOO/5GlpOLmdi8Mz2imtGh0RBe3BTEPe++y8TO1ee0r7a/JEmSJEm6Htjy429iyzDVOdOWGwtF+LBFID+tYj9DmyWCro9OJc62BKuVC7+QaqvOZ1b1YVfdTqk6Y+y8qhBuIxYnunF0JPq52kbqRWhv6aHQ00vhRrFQ27qUi/Wvea+bk9ToBNo20VGYX0lc/740rvVhBBfpuLl/DyLT1rFu+2UB1aMNY98aiXbhGCbPXsyS6ZMZ1Xoky5T+/P2ZTvYz1ubjxzljjSS6aWe6tdvPBy8l0/iu22kSF40ibjtdWdWVjXPr88ssmZnkWH0IDvdCMRdy/lw+lYqRkAgvrCLI5tQKnFdbVsnej/l7yzbcFteN/vEd6dJxISesJg5vOyjidjUFY8LDLFg5iag1TzD64RWk1s7fYl9iPseyEf0Y3LZvzTQo4Q4G9nuHo7aOrBZ7XVosv3IUdM0slKYms3LyC3x5LpJuA5qJvSg4sb8kSZIkSfrz+82B2FurEiXyiUXkTtt1vhbxje1rXYOYLxLp8lIRKkXQbCMCpkWEy3RHPr2aHNFPufiqimAdfw1rF2RQiBHrI/IQqWJZZSKsXRDzNRqFdiK96ESYClQufZlcFbf199XwvL+GYZ4qDcX9U00WlhRUMq3Awmkn19nOszEPvjeVFvtnMbzTNLZFjmL6jA742tJ1bfpmdL8rgvNfr2H/ZXlYDaxP3TAT546l11x/ai04wJ79ZRijI/AW42G9cJwTFyJoNu4emiV9xb/eXs6Blv14oHMdMg8eu3h9sLPr8ytslzokn1CJ796u5n6KfzvatVQ5vW0vede8rEqKM85x7rw33Z4fRdOcNSxZer7mwEoN78XUT/+PoGWP8cjE9ZyvFe5tKg/u44gpgvh4D9KPnuRU7Skl2143ltQDHE7XEN+vO2G/90la26sdtbbJmf0lSZIkSdKfnyZcFzjN8b3dmKcf5c2Zrzh+chApoLGHag+cdfQiqOo1dBUB1PZmt4xyC6sqqs70xogw3EiEkHwx78tyK6HiPrY/nJFdYeU70cZaq59Tos0RkYS8dSrtdYo9NH8nAmKFmGfQq9QX4aOJ6K+pWN5NIhx7ifvkiRu3i5Bk68d2ve8N4muIuO8tBg097Z9UYeVYmYV1tjain3IReJuK+9YX/fQQgTdefG/LM7azv5vs6ywCu5dKiAjhSeJ+n5VY7NcTnxP3rXXy0wletEh8i+fa7mTagJfYffYnks7GMWTaUCL3LuP74xcvFNbfOoqnRgfw7TPz+DG1OgpWsZZWENn3r/TrEkn+iTRK9SE06vco48feSPanL/Px5mys1hICO49iaE8/NiUmsmJ3CtaEx3mwh5akN+ax9rAtZTu/Pr/Kks3Z8ngGThxAUzWLPENDer/wFAMjd/HahI84bHsnpZPL8oiIo1GzpiTc9RfG/jOR+5qc5oP7n+Tzn6rXRUf8068xoclWXn1mA4X+QQSGVE3+nhXk55djLUohzacrf31sEK1DLZgULwJjGtKsZ3tCMw9wNl+sjzmDk7k3cveEB+jdyk/UgRZjSCQx8S1p26iSI0dzqg6KPIKo06AOoWH1aD24J7E5SWw/bsZHW0p+kS2J62k6/FF6Njbi5R9C5M1tuPPZyfy1ZTGrn3uZ709VOLe/bMuSJEmSJOlPTWnuFXfJc7btjw+0MDZw/OQgguc9fho62sKtCJNaETSN4l7Hy8z8u+zi5RAJ3lqG6q1sLDDzVaXCjUYNow2wu8jMx7a38tfqZ0NBpWgD4Z4aJnkqVJjMPFNktb98brsu+XYRVG2fNBEoQqvtVfNCsdx9pWb7G+Nsi2vrreE2Eb79RVvbpywUWiwki3VZJQJtTdwTy7O96a+5FrQie1ZoVW4V3+eL9Z5RYrUH4gDRR6no28mIeEWGVk+waPVdHLq/H4mrcqtCkBrKnYtX8myjL3j41lnssb/BzEDrl9fxaucVjGg1lwO2DbuMvm43Rs0cx11dGhLiZaEo9Qg7F7/OS7O+Jc3eXkODp77k46E7GZswnd1ixT27zeDLfzXk09Z/4aMTlmtYHyfY/jDHmClMmtCDRqGQk7yORZNfYPGOqk+McG5ZGm6evop3Rvtz4cRP7F2/kqULv2RPeq0BUKMYumYdf2tvvxjhEqa1T9FzwL+rzkirATQdOYExo7oR3yAYT0sRmUe389HDj7Jkf/VhjJ7I7g/w0GP9ad8yhiBxNFWadYZDn85k0rPfY8vNmhYT+WzjWOpd8tc4LFx4Zzi9J2yhQgmg7VMv8MigFtSLCUBvyiUteSurXp7PB6vO1lz7ffX9JUmSJEnSn901B+LqIHs9sJ1VLhVbZ99AsQ1dRIi+S+StkyWVvCaC5KXnZ/8Anh14Zt9b3PLpYO59bv81noWWJEmSJEmS/htc9ipHRVEZ6q9lmgjyj/hqeFxMtjBstVqxvZftDw/DgkeH3nQKPs23Xx6SYViSJEmSJOlPwoUDsZXMSjApUFejEKlaOVdh5bNCCzv/F2kYT1rd0wW/Y9+w/oCMw5IkSZIkSX8Wzl0yIUmSJEmSJEkuymXPEEuSJEmSJEmSM2QgliRJkiRJktyaDMSSJEmSJEmSW5OBWJIkSZIkSXJrMhBLkiRJkiRJbk0GYkmSJEmSJMmtyUAsSZIkSZIkuTUZiCVJkiRJkiS3JgOxJEmSJEmS5NZkIJYkSZIkSZLcmgzEkiRJkiRdpKlL16en8EDXABTHLElydTIQS5IkSZJ0kbYRPScO47YbvWQgltzGNQRiA6aoLpxv/SBnOwwnrXlnCn0NjtuugSaA4vp9SG83krPtHxT9dKHQz8Nxo42CxbsRuU3uIe3W6jZdyff3ctz+32H1jCO71UjS6kVgdcyroQRScMtDnLnt4VrTKLJCdY4GgupHad2eZLQZIcZnJOcS+pATFvTzvtyV4kfTsXP48NAutmfvZuWGOQxp5XftD7bO9OPObVzV77Xtf7b99Xu1cTDE9WXann2smJOA1jHvcs60cTnXMIa/ypl+PGLomriQJcf2siN3H+t3vc/kYTdirN3oGtfH0HgoC47/xM7NY6mrccy0cWZZdgpecZ0Z+uKrvLd7M5tS32NgxDVvvfty1/rRtWbyTz+xp/jYz6ZdB6fQ3B6BFHxbDOSJz5exKnU/O7J2snzDfIZ3Crk0YGoa8tCWw5f1c4D5g42OBv97TgZihcqwLmTVi0bJ/JHgQ5sxmuuQ16QLxYZrKQkDpXEiKIaC5/GVhO3/Dp/yMPJu7kaRp2NVFF+K67WkzJyC35FvCDmyEw/lBgoad6BYdy3Lco5VF0xxTHcybulCiccvDYcOi8aK/sxKIpI+d0xLCciudNyupSy2FxfCtXicXEXY3pUE5GgobXgHuQG1QrPbUgkfNpd/zupA0eJEHh8yjZUFHZi4dC59o6/hmMypfty5jav6vbb9z7a/fq824rkmqDE9n3mFT36Yy5319Fd8YnSmjWtybgyvzpl+PGmZ+A6z7vfi+8kjGdZpBP9Yrafnq2/y2O3VJ3WubX20cfcye9l4GlpMl51gcWZZNgbq3jePT76dQjs1mS+fncT4PtP5LkeernGOG9dP5UEWDR7M/V3urZkeuGeBCM8VpH63hVO2CKSJofeMcbQsWMubo8cyYeQCtmk7Me7TafQKrfUoo3rh7W3mwNwHGNSqD/fap37MWV3qaPC/59zeVAIprlMHsn4k6NQxPHOO4Xd4C55KHQrDA6sG2VCf7DajSGsYg8V+J0EXS3brkaTXi6yap6lDUbAn+rOb8c/KQF9wBp+jW/AyR4h+HGdTrfn47F9C+E+7MWafw+PCQQJOHkGjCcNU+xBJ8aA8siOZLYdyrv1IzrW6m+zocMyOm6uomP3jyWk6kNRbR1WduW1zL1nR1WduFSoiO5DvX4nx8Ld4l9ln/pyix6K1oi3JQFeS45hy0Zod5SXGpzzIB835XfjZtqsoA2PKDrzKPCn39b20CEXb2+avYGPqKp7uE+QeT0raRgx4tCN8NYMpM75my9qvWTh8Jt8pHRn2QENsB6xqZG9mHz3I8oW3E+gYFCWkG4mH9/PFnDZ42+Y50Y9bt3FVTmy7W9eP+L/+6ETGdy5h+YiJLD5Z8whcizNtXJQTY/j71U8D2veI4vySBbz1xS6O7ktiTeI8VpwNplm7GEcbZ/ZpFcW3FeMWPY7vW2OZtSLv0ucSZ5YlGFqPZ860AD7vdTfjnnib5Su2sm9vCjnljgY2XvXpNed9vjy9nx0XdrBs+UM0ufzlAzWAZmOms3DbJr6/sJ+NB5YwfVxL/B3j5bLcuX6sxaQlJ7N/x96qaecZggYOpnnmIqY9tZE8W4fmU/yrXzfuG/k6X63czNavP2bu378gw9icZjfVKiLFF18/C+cP7uHYoaMct0/HySj48zwWOReIdWGUe1jR56ZhjehFats7KdSn41lgpcIvrCrslp8k4MghlNDOZEf4YVW8KI7rSEnlPoJOp1UtSKMX862oFbWSp/kC+hIrlUZHsLaxWmoFRQWLwYjFUoC2vLqFFlNMHzJjgtCm/UDIvlUEpZdQHnsHOeHejjYK5pDOnG/aijLrOXyPrSfkwBqCUg7iVVDk6F9s0+mviEzegG9uIWLVrkzxxKxWiPsYMWuuMGTWIjSlZswBsZg0jp49RIDXl6MvFP3a5zhoY0noFoeffz3adYy9pHhdlRLSgmb1LSR/sw3f4W/xzcmPGBK2nS1JFmLaNrc/oFrSVvPCQ4sxDZpF4ohYtGooPeYl0j3nXZ5N3E6R2DfO9OPObVyVM9vuzvUjHkQ5OnsQfbtN5sN15zBd8XHMmTauyZkx/L3qB3MGZ05VENqlG0187DsHXd1baBKax6Gks/YTNs7tU0ENoduCF+l2+Hn+/tJ+xNPkpZxYlu2l9c7j/0KMyZ8ei9axMT2JtUkf8NQDjS++LK4E0Hn+ezx/nx+7Zz3BhKGJLNlVhLb6djtPmj79Pq9PacSpt59jfM/hJL6TRbPEN5l+f6STQeL65Nb1cxnP9mN57B4N6xMXsqfIMVOwVlTWaq/gFRmGsfIMp8/U6sUjkABjichIoQT56i7NRX8STtWxVS+CIOVoyitFOPXBovOhUleBaqoQIyjCon3LRNDN2y7Cbx7l9bqSW68zuYH5+B3Zjb56TCrOYyhVKIuIp1xvi4IqVoOfCJmiA+XK0dDq2YDcujegTd+Bd6ljj+rqkx/lg8eJNQSmn8FQKML5uU34Z4u+w2Kr1kcNpyA2DkveFkIPbsMn6xQeeal4Zh7CWFD70PjyKvk5q14c5ZgqKYsbSFr7kaQm9CIvRIR+x+1QgvHkZrzUJmQm9CU7rjOZ8fEoZ9cRkGNytHGo2MuHY57n7dnTefalPVRfdOHK1NBQcdRcyIWMMrzrRBMYFE2EfwlZ4iBGCQkhsOpQlMJNLzJlVgotZs5nytzZPNn9DG+Nfp0DJfZunOrHndu4Kue23X3rx85qvfojmTNtXJBzY/j71A/WTFY++RzrDMN4Y+enzJw/hzdWjoD5j/LSN1UJwrn1UQm9dxqTWv7AzCe+IetKJ9GcWBa6m2nVwUjWvrUsfuIRRvd4iDlfQtd/vsNTff3toUSNvpO/Dgxi38wJvPDGWrZ+s5Il0xaTLJ7eqymhvXloXDRbJ41h7rsbSd6VxIaXp/DqKpXWQ7oS6sKJ2K3rpzY1gt5P3ktI0ju8dfnZ5lp09fszdUYnMt+Yx7KUiwtWgz2xnCsj4aUVrE1LZsOut3lsQCx6x+1/BtdYxhb0p5cRueML/POvdPxgRn9uA34FfhRFRaE98wM+xbXaWbPxPbIFT60Ijm1HcLaj7c1nPSkSh6pKhdiZjmbVrMYmXIjvgCl/E8Ep6TW3W42hmFQ9ZQ2HcbaD7VII23Q/2cE60HtXHakYRBuDBUNWCtr/8FlAKT1EiCiYqC3vEb39K/zzPClq1Jtcf7G8qhZYdX5UqsV4ph9HXym2R+zm8tBGlHlcvlUWsn/8lNenf8LuzD/PSwV/jEoOzxjMnU36s2BrrUfbGuUcmT+JBdtj6DemLWnzprLo4GUHFHZX68fGndu4qqttu7vXj/TrrjaGv0f9KHiFxxLpncGPH3zNvhwxy+xNo4H30PYGe1Kp5Zf7UQJvZ/zzzUh6bj5bc3/pCezqy1KMYYT6WTiz5jPWbtzH0f17+Hb283yS7E/nQe2xXSmqaXQjcZp09m9Pu3i542W0NzensZcPnd/4gW05B9lun7Yx425vNBGRhLjyKeIa7lc/tamNBzKoo4lNry2l9onf2jxvHsrclc/RYPMUHk9Motgx38ZycjETm3emR1QzOjQawoubgrjn3XeZ2NnoaPG/51QZK6ZiNBgwG0QAtJrQlJeLodRh0YufRZDV1BpvqyGcMqOKWmmhIiQO02XjqhQdJDjpI6K2LSFi5ydE7d4tehJBuiBL9FlNweLTnMz4NlRmf0fYkeOXhlpFBFAKMR5ZSviuf1+ckj4j4kAyOntbxx2sv1QMv4UVpTwT44ktGMu9KQ0JrVqKOHLKaxSPNW0NQWcO4XNqA6FJq/CmIbkxN/zikZS7sGRmkmP1ITjcC8VcyPlz+VQqRkIivLBmZZFT65dLjU6gbRMdhfmVxPXvS+NavyvO9OPObVzVtWy7O9aP9OuuZQz/0/rBow1j3xqJduEYJs9ezJLpkxnVeiTLlP78/ZlO9gDqTD/G7vfQPSqY7u9WB9BkXn8oHF2zCfwr7V0GhItnSyeWZa2ooNKq4hvoe/H51ZxBRpoFfXAQPrYEIJ4jbRcpqurlJ29qEc+5mM+xbEQ/BrftWzMNSriDgf3e4agLv9TpzvVzkYabBvWlXs46lq/Nv0KmUTAmPMyClZOIWvMEox9eQeqVjhnsLJSmJrNy8gt8eS6SbgOaiQz45+DccV1FJoYyBVNA1MUjSG0UpT4iFudnXuxEE0zhje0xFW8lbM8PeBiakV03+gpHnRZUUyFak56Sus0wVZ7EJ9PxuoKNvh65jVtiubCe0BOnLgncNkpxFgaLNyajFm1pHrpak7a0tOoXvzwLvUmlPCRWFIv9br8f24NDbboAKvRmsfzqa5MFcxYeRZVYPLyxXNJcJaj9EMZOHcotrvw6Uy3WrL0kn1CJ794OX8dYKP7taNdS5fS2vVUX5tt4NubB96bSYv8shneaxrbIUUyf0aHmPs70485tXJXT2+6m9SP9OqfH8HeoHzWwPnXDTJw7ll5zTaW14AB79pdhjI7AWzzkO9NPyapEBt/Sm3trwmd/nv/3BSp/+oiJtz3DuiyrU8ui7CTHU6Bu+5YEOJaFrh71G2goOnWGXPHkXHlwH0dMkbTqGveLwaSqTQTx8R6kHz3JqdpTSja1L0J0NW5dP9W0Del0RzSF69ezu1ZUq6aG92Lqp/9H0LLHeGTies47c4AkDsAuj1L/a5pwXeA0x/d2Y55+lDdnvuL4qVopWksoxXUaYVJK0KiBFNdrR7EhA/9jBxzXCOsor3sHOb4ZBO3fiaE8B4/yAIrq3oy56CiepVVDbtWL8OgdSlnwTeQ37ECRsQCfQxvwKa0eQRFiY3uQ55WGf8oZVI0nFp1j0oggXWkWR0X5aLUxFNa5iXL7BShaETyDKA+MwlxxAZ2tK2ux+BpEcXRTSnxsn5esYtV5i2VHUOYljo5LyqrCq+pJpacvZr0/5aF1qTCn41FiwapUopptUV6DKSKBYqMeq1a09Y6kOLYdhb4VeKXsxKtMtLFYMAc3ocjfG1WEYlX1oiI4gfyoIDTnk/DJd4R0G10Lxi5/hRF9O9FSs4XP16df4YDBxViyOVsez8CJA2iqZpFnaEjvF55iYOQuXpvwEYcLbI8oXrRIfIvn2u5k2oCX2H32J5LOxjFk2lAi9y7j++NlzvXjzm1clVPb7sb1YyMe/+o0qENoWD1aD+5JbE4S24+b8dGWki8OzJ1u44qcGsPfp36spRVE9v0r/bpEkn8ijVJ9CI36Pcr4sTeS/enLfLw5G6sz/ZiKyM/OJa9mysf3tvvoHb6T91/awHnxdOrcsnI4r23DPQ/dQUNTCmeLA7nl0WcY27WIL/72EltSxX4vOsX5wJ4MG383N+kLKVH9CG/ShtsHNMfy3SKW7yzEWpRCmk9X/vrYIFqHWkQO8CIwpiHNerYnNPMAZ/MddeiK3Ll+qkYANeIORj3Tnoy3Z7M8+fKPSdMR//RrTGiylVef2UChfxCBIVWTv2cF+fnloh89TYc/Ss/GRrz8Q4i8uQ13PjuZv7YsZvVzL/P9qV88nfyHUpp7xV1SybYPS25hbOD4qTbbH+ZoR250XUziMFIjfol8Tm7Bx/EGNatvazKaNkD/01KCsh2fImH7pInGg8jxOkLo7q0YzAqmuoM4H+mBpjQbQ+4JvFOPYDDVioSKN4XxQ8j1+/nZUyVnI5EHjlR9MoPtY9dEUC2IiKXc0wur7VKO0jR8jqzDp7h6kzRUBtxMvgjyZT6+WGwvCVUUoD+/hZCUs/Yz21bvVmS0uIWKS45UrGjSVxJ5LFUEWQ/KYm4jPyQMk4enrYrEtqdhPLcT3+yCmqBr9Ywlv25LigMCMavi6KtcbF/mHgJOn7rsco9AbntpEdMHKawdfR8zV14sOpdm+yDxMVOYNKEHjUIhJ3kdiya/wOIdVS+/GFo9waLVd3Ho/n4krsqtGhM1lDsXr+TZRl/w8K2z2GM7Mr1KP3bu3MZVXWXb3b1+NC0m8tnGsdS75KOyLFx4Zzi9J2zB9nTjTBuXdZUx/D3rR1+3G6NmjuOuLg0J8bJQJJ7jdi5+nZdmfUta9SA7s98voSVh3ne81mYxf+m0kBTHKT2nlqUGkzBhCo+O7kSjcB1FJ7bz1bRpvL4ilZrDIG0orcdPYszwzjSO8UFTXkDWycOseXYCr6x1vIFKDaDpyAmMGdWN+AbBeFqKyDy6nY8efpQl+x0r5KrcuX4E3W3TWPF1J9b26s68rZcdPKtRDF2zjr+1//nrC6a1T9FzwL/JI4C2T73AI4NaUC8mAL0pl7Tkrax6eT4frDrLla60/l+4hkAsSZIkSZIkSa7n56dhJUmSJEmSJMmNyEAsSZIkSZIkuTUZiCVJkiRJkiS3JgOxJEmSJEmS5NZkIJYkSZIkSZLcmgzEkiRJkiRJkluTgViSJEmSJElyazIQS5IkSZIkSW5NBmJJkiRJkiTJrclALEmSJEmSJLk1GYglSZIkSZIktyYDsSRJkiRJkuTWZCCWJEmSJEmS3JoMxJIkSZIkSZJbk4FYkiRJkiRJcmvXEIgNmKK6cL71g5ztMJy05p0p9DU4brsGmgCK6/chvd1IzrZ/UPTThUI/D8eNNgoW70bkNrmHtFur23Ql39/Lcft/h9UzjuxWI0mrF4HVMe9SimhzA4X1e3A+YRjnbu1NoV5x3CaofpTW7UlGmxFifEZyLqEPOWFBv9CXG1L8aDp2Dh8e2sX27N2s3DCHIa38xKheI2f6MTagz4sf8OXpfWy/kMTyb+cy7NaAWsWu4NtiIE98voxVqfvZkbWT5RvmM7xTyH/1CNEQ15dpe/axYk4CWsc8O11rJv/0E3uKj/1s2nVwCs11jna/1xhej/7I+rke21y15i/6xTp0Zc6ModMUvOI6M/TFV3lv92Y2pb7HwIif93T1cXbVflyQrB+3qB8nn/8VKsO6kFUvGiXzR4IPbcZorkNeky4UG66lJAyUxomgGAqex1cStv87fMrDyLu5G0WejlVRfCmu15Iycwp+R74h5MhOPJQbKGjcgWLdtSzLOVZdMMUx3cm4pQslHr80HBoqwm4nvXk7ypTzeKdsIGTfFoyV1XFXS1lsLy6Ea/E4uYqwvSsJyNFQ2vAOcgOq04w7UwkfNpd/zupA0eJEHh8yjZUFHZi4dC59o68lgjrRj+JPp/nvMe1ehXWPD+fBPpP4LPUWxi9dwL31NVVtNDH0njGOlgVreXP0WCaMXMA2bSfGfTqNXqG/f41pghrT85lX+OSHudxZTy9+my5TeZBFgwdzf5d7a6YH7lnAjtwKUr/bwqlKW6PfawyvR39g/VyPbZypeeGqdeiynBlnZxmoe988Pvl2Cu3UZL58dhLj+0znu5yLpz6cG2dX7ccVyfpxl/pxbm8qgRTXqQNZPxJ06hieOcfwO7wFT6UOheGBVWdBDfXJbjOKtIYxWOx3EnSxZLceSXq9yKp5mjoUBXuiP7sZ/6wM9AVn8Dm6BS9zhOjHcTbVmo/P/iWE/7QbY/Y5PC4cJODkETSaMEzGWkOoeFAe2ZHMlkM5134k51rdTXZ0OGbHzVVUzP7x5DQdSOqto6rO3La5l6zo6jO3ChWRHcj3r8R4+Fu8y+wzf8bqm0B2XQ98kpcScjxZrFcqhqI81OoNFeNTHuSD5vwu/GzbVZSBMWUHXmWelPv6XnqWWLS9bf4KNqau4uk+QX/KovjdaRsx4NGO8NUMpsz4mi1rv2bh8Jl8p3Rk2AMNxeGG2FORvZl99CDLF95OoGNQlJBuJB7ezxdz2uBtm+dEP/h05K67gzg0/1ne+GIXh7dvYNEjM1hdmsDg+xtXtTGf4l/9unHfyNf5auVmtn79MXP//gUZxuY0u6nWMasaQLMx01m4bRPfX9jPxgNLmD6uJf6X7DQdYZ2HM/Wr5axOO8DO3H1sOrqSl8fdVLUs8X/90YmM71zC8hETWXyy5rfjImsxacnJ7N+xt2raeYaggYNpnrmIaU9tJM9WQM5su6v6I+vnemzjTM2L/69ah67KiTF0qn4EQ+vxzJkWwOe97mbcE2+zfMVW9u1NIae86nZnx9lV+3FJsn7cpn6cC8S6MMo9rOhz07BG9CK17Z0U6tPxLLBS4RdWFXbLTxJw5BBKaGeyI/ywKl4Ux3WkpHIfQafTqhak0Yv5VtSKWsnTfAF9iZVKoyNY21gttYKigsVgxGIpQFte3UKLKaYPmTFBaNN+IGTfKoLSSyiPvYOccG9HGwVzSGfON21FmfUcvsfWE3JgDUEpB/EqKHL0L7bp9FdEJm/AN7cQsWpXYKA06iYqLAZKGv+F1PYPkprQh9zw4IvB31qEptSMOSAWk8bRs4cI8Ppy9IWiX/scB20sCd3i8POvR7uOsfZfJlenhLSgWX0Lyd9sw3f4W3xz8iOGhG1nS5KFmLbN7QHTkraaFx5ajGnQLBJHxKJVQ+kxL5HuOe/ybOJ2isS+caYfxeiNt85KYU7+xXoqPsiBQ1aimjTA6JhlraisdfCk4BUZhrHyDKfPVM/1pOnT7/P6lEacevs5xvccTuI7WTRLfJPp90c6fnFUQgbM5v1lE2lt3syHj01gfL8xTH3mY77ZnuqoDzNHZw+ib7fJfLjuHKYr1tilPNuP5bF7NKxPXMieoqp5zmy7q/pD6+d6bONUzV97HboKZ8bQmfqxvWzeefxfiDH502PROjamJ7E26QOeeqAxF8/VODHOrtqPi5L14z7141QgtuqNYnPK0ZRXinDqg0XnQ6WuAtVUIcKyJ2b7Rougm7edoNN5lNfrSm69zuQG5uN3ZDf66oxRcR5DqUJZRDzlevtxFVaDH2ZbiFSuHA2tng3IrXsD2vQdeJc6RlFXn/woHzxOrCEw/QyGQhHOz23CP1v0HRZbtT5qOAWxcVjythB6cBs+WafwyEvFM/MQxoKawxbhKntGDaHMX4em+BTex78hZO9qArPE802DXuQGV19DXYLx5Ga81CZkJvQlO64zmfHxKGfXEZBjcrRxqNjLh2Oe5+3Z03n2pT3YXw13cWpoqDhqLuRCRhnedaIJDIomwr+ELHEQo4SEEGjf9eIJfdOLTJmVQouZ85kydzZPdj/DW6Nf50CJvRun+rFm7WXvcYXmw4eTEGEQUVeDV1Qs4T6i1PV6rnTVja5+f6bO6ETmG/NYllIVY5XQ3jw0Lpqtk8Yw992NJO9KYsPLU3h1lUrrIV0Jtf3m6G/hgef74L3pBR6+dw5LPvuWbZu28P1ni1m9s+BiZVmtV6uyi9QIej95LyFJ7/DWirya+zk3hq7pj6yf67GN0zV/LXXoQpwZQ2fqB93NtOpgJGvfWhY/8QijezzEnC+h6z/f4am+/hdPfFxtnF21Hxcl68d96sepQHyRBf3pZUTu+AL//EsvTqhiRn9uA34FfhRFRaE98wM+xbXaWbPxPbIFT60Ijm1HcLaj7c1nPSkShxFKhSguR7NqVmMTLsR3wJS/ieCU9JrbrcZQTKqesobDONvBdimEbbqf7GCdeALwFmshGEQbgwVDVgra/2QvqF4isFvR5hzGmJeFvvg8nmd+xKfIg5KQaMdZQAWrzo9KtRjP9OPoK8X2oKc8tBFlHpdvlYXsHz/l9emfsDuz5hyzm6jk8IzB3NmkPwu2ioOpnynnyPxJLNgeQ78xbUmbN5VFBy87oLD7lX4qD/Ph6Jls9hvGG8eS2ZF3kO93vc6geJXyrCwKL6sFz5uHMnflczTYPIXHE5ModszX3tycxl4+dH7jB7blHGS7fdrGjLu90UREEiJ+c9ToZjSNMrNv6TekX+nX4TdQGw9kUEcTm15bSs3J6ktcbQxd2R9QPzWuozbXWPPu62rj/Ov1oxjDCPWzcGbNZ6zduI+j+/fw7ezn+STZn86D2uPs275dtR/XJ+vnSlypfpwKxIqpGA0GzAYROK0mNOXlIvDpsOjFzyLIirxYw2oIp8yoolZaqAiJw2Q/erpIKTpIcNJHRG1bQsTOT4javVv0JIJ0QVatQKxg8WlOZnwbKrO/I+zI8UtDrSICKIUYjywlfNe/L05JnxFxIBmdva3jDuKo5D9itYVWsT5a/cWjG2tx1eUbOk+stpVWI8hrFI81bQ1BZw7hc2oDoUmr8KYhuTE3/OmPiv7bLJmZ5Fh9CA73QjEXcv5cPpWKkZAIL6ziCTunVvBToxNo20RHYX4lcf370rjq9V47Z/sp2fsxf2/ZhtviutE/viNdOi7khKjbw9sOioe0agrGhIdZsHISUWueYPTDK0it/RgnagzzOZaN6Mfgtn1rpkEJdzCw3zsctXUkasNWHRbL73Vgo+GmQX2pl7OO5WtrvfwtXMsYupo/sn6uxzY2ztW8e3J2DG1+rX6sFRVUWlV8A30vPleZM8hIs6APDsJ2Qt4ZrtqPq5L18+tcqX6cW9WKTAxlCqaAKMcZUUEbRamPiMX5mRc70QRTeGN7TMVbCdvzAx6GZmTXrT6LWpsF1VSI1qSnpG4zTJUn8cmsfl1B0Ncjt3FLLBfWE3ri1CWB20YpzsJg8cZk1KItzUNXa9KWllbtlPIs9CaV8pBYUbz2u/02FtFvmRgCv/CL26H4U+GloJYXoNrWTRdAhd4sll99bbJgzsKjqBKLhzeWS5avEtR+CGOnDuUW++vurs/2km7yCZX47u3wdYyF4t+Odi1VTm/bW/WmMRvPxjz43lRa7J/F8E7T2BY5iukzOtTcx+l+7CopzjjHufPedHt+FE1z1rBk6fmafaiG92Lqp/9H0LLHeGTies5flhoqD+7jiCmC+HgP0o+e5FTtKSUb20U3ltQDHE7XEN+vO2GXHfj9JtqGdLojmsL169ld69fB5tq23bX8kfVzPba56Ndr3l05PYZXqR/KTnI8Beq2b0lA9TxdPeo30FB06gy5zg60q/bjomT9XIUL1Y8mXBc4zfG93ZinH+XNma84fqpWitYSSnGdRpiUEjRqIMX12lFsyMD/2AHHNcI6yuveQY5vBkH7d2Ioz8GjPICiujdjLjqKZ2nVYZRVL8KjdyhlwTeR37ADRcYCfA5twKe0OpGIEBvbgzyvNPxTzqBqPLHoHJNGBOlKszhKy0erjaGwzk2U62330YrgGUR5YBTmigvo7GfvisXXIIqjm1LiY7vWV8Wq8xbLjqDMSxy5lJRVhVfVk0pPX8x6f8pD61JhTsejxIJVqUQ12/ZkGVolkqLIelRYRTi2eFIWfSsFARX4nNgptlG0sVgwBzehyN8bVYRiVfWiIjiB/KggNOeT8Ml3hHQbXQvGLn+FEX070VKzhc/Xp7v+E5Ylm7Pl8QycOICmahZ5hob0fuEpBkbu4rUJH3G4wPaI4kWLxLd4ru1Opg14id1nfyLpbBxDpg0lcu8yvj8ujkqc6gc8IuJo1KwpCXf9hbH/TOS+Jqf54P4n+fyn6jdz6oh/+jUmNNnKq89soNA/iMCQqsnfs4L8/HKsRSmk+XTlr48NonWoRdS9F4ExDWnWsz2hmQc4my+WJY6CT+beyN0THqB3Kz+sFi3GkEhi4lvStlElR47mVJ3lFbVZp0EdQsPq0XpwT2Jzkth+3IyPtpR8cdBUTY24g1HPtCfj7dksTy51zHVwcttd0h9ZP9djG+HqNS84WYcux6kxdKZ+cjivbcM9D91BQ1MKZ4sDueXRZxjbtYgv/vYSW1IdY3i1cXbVflyVrB+3qR+luVdc1SOqg+2PAbQwNnD8VJvtD3O0Ize6LiadSNJFp/A5uQUfxxvUrL6tyWjaAP1PSwnKdjwI2z5povEgcryOELp7KwazgqnuIM5HeqApzcaQewLv1CMYTLUioeJNYfwQcv1+fvZUydlI5IEjVZ/MYPvYtYgECiJiKff0wmq7lKM0DZ8j6/Aprt4kDZUBN5MvgnyZjy8WVcTSigL057cQknLWfmbb6t2KjBa3UFGTWG2saNJXEnkstSrIiu0ot217ZB0q9BqUMrGclB/wzb54RtjqGUt+3ZYUBwRiVq2o5WL7MvcQcPrUZZd7BHLbS4uYPkhh7ej7mLky2z0uqVD8aDpmCpMm9KBRKOQkr2PR5BdYvKPq0gBDqydYtPouDt3fj8RVuVVjooZy5+KVPNvoCx6+dRZ7bGdNr9KPbZ/fPH0V74z258KJn9i7fiVLF37JnvRa10OoUQxds46/tReFfBnT2qfoOeDfVUf9agBNR05gzKhuxDcIxtNSRObR7Xz08KMs2V/9OpmeyO4P8NBj/WnfMoYgL4XSrDMc+nQmk579Hltu1rSYyGcbx1Lvkk8ht3DhneH0nrCF6jXT3TaNFV93Ym2v7szbeoUHiKtuuwv7w+pHuO7aOFHzgrN16JKuMoZO148aTMKEKTw6uhONwnUUndjOV9Om8fqK1JpLU5waZ1ftx1XJ+nGL+rmGQCxJkiRJkiRJrsc9LmKVJEmSJEmSpF8gA7EkSZIkSZLk1mQgliRJkiRJktyaDMSSJEmSJEmSW/tZIG606BHHd5IkSZIkSZLk+uQZYkmSJEmSJMmtyUAsSZIkSZIkuTUZiCVJkiRJkiS3JgOxJEmSJEmS5Mbg/wGgEwlw40PvngAAAABJRU5ErkJggg==;" vertex="1" parent="1">
          <mxGeometry x="30" y="520" width="708" height="83" as="geometry" />
        </mxCell>
        <mxCell id="tknetBVRxJH12qnPuVGs-77" value="" style="shape=image;verticalLabelPosition=bottom;labelBackgroundColor=default;verticalAlign=top;aspect=fixed;imageAspect=0;image=data:image/png,iVBORw0KGgoAAAANSUhEUgAAAwMAAABuCAYAAAB7oM86AAAAAXNSR0IArs4c6QAAAARnQU1BAACxjwv8YQUAAAAJcEhZcwAADsMAAA7DAcdvqGQAADwvSURBVHhe7d0HfBR1+vjxz2xN7wkpcBAIoCABpAsICoiiKKjgcWDBguCJ2NCTsySCiPgHxFPkPDuncHgqKk1QEUWKhN57CSSQkN43uzv/7242EGqW+3GeZp+3rzG7M995vjOz3919ntnZRWsTkKSXzuxDwMilnM2KLaELefUTsZnBWHyQ4P0rCS6scC/VQzpyrFVTLDs/IzKn3D0PLYCSFoPJDdhFzPpVWB0atsTBHI/3w1iWgzVvH0FHd2G1Oavau2hBFCUPIS/U4Jlxipb7A/Fbd2F03/GjIq49hXGNqPAPQNdtKmYGwbuWElyiu9urrcQefgUFDZpTHhyC06BBZSGW4yuJPpCOwdu+atn3KrX05WmFFsHVU2cxfrDGkhF3MnFBDtVbW6dpobQaOY6xY66jeQzkblrKrKdfYvYvBe79t3Z4glmLbmb7XQNIXZhXdUwMMdw0ewHPN/+cB696mQ2ltcdx+z22OY2J9lO+581Os/ljj7c44Kiaa2z7OHN/GEVjU9X9Kk5OvDOcfmNWUumZUyfVcgy9Hj+GKNqPGccjI3rQPNZM8b41fJmSwoz5R7G710lg6OKlPNlVPdHPYFvyDH1v/Tf5ruB1NU5dJePHde80Mn4uwqUaP5fq/cKLNuaG1/LAS3/mhm5NiAmz4CgtpCDzED9PepSJn2aqdw5Fxo84h1qKASGEEEIIIURddfbpcSGEEEIIIYRPkGJACCGEEEIIHyXFgBBCCCGEED5KigEhhBBCCCF8lBQDQgghhBBC+CgpBoQQQgghhPBRUgwIIYQQQgjho6QYEEIIIYQQwkdJMSCEEEIIIYSPkmJACCGEEEIIHyXFgBBCCCGEED5KigEhhBBCCCF8lBQDQgghhBBC+KjfbDEQZNRoazXQyQSaZ16MSaOzn8ZlUsIIIYQQQgjxf/abTaub+xu5O9BAl+piQNPoEWTkjwEGmv6OiwFDswf5Z+5qXrwhwDNHCCGEEEKI/w05x/6rMpI44Aaa5S9jyY+lnnmKX0N6pb7FnD0b+SVvM9+ue5+nh11GYPVHIr82LZRWo17hw+3rWJOzngXLXmFIh9CTn9B4LbApN776AV8c2syaE2l8/d1khl0VXmPQaYS0vZ0nPp3HwqNb+CV7LV8vm8bwHtH/hYHpZV/e7PulOj41WFsMZfrenaxdMYpEo2fmf+BSxRFCCCGEb5Bi4NdkTKLXwGYULFpEWolnHv60S32Hl+8K4Men72NYj3v5f4ss9H3j7zx67f/i0wMDscMm8/rL3SiencpjQ1JYUNiNxz+bTP/6FzFctDB6THuPlEEaSx8bzj03jmXu0SsZ/dl0BjXxZKnGhvSb8DDtCpfw9xGjGHPfdFabevDwJyncEHOJKyGv+vJm3y/R8anBlDSISfNG08xpQ/fM+09cqjhCCCGE8B0XzF46BRp5KtTIS+EmpqgpVd2+zarh516q0T3YxGvhRjqckbf5WYz8vwgTD6mGrg46Bhp4MtTERBVjqmo/QcW542ScKlajgTtUPFebSWEm+pk9C86i0TbQxHjV7lUV688BGqfljep2G38jj6r+JnvaPKf6+6PVvcjtKrU911k0Qs/Y7othiO/HpN3b+Pqta4nwxNGie5O6Ywufv9KJoHPENra8nt6X5bH8818o98zD1JSu1yVwfM503v58Hbs3p7E4dQrz06No3aUhRsx0fesX1nw5+GQ/JwXeyP/LWs1zvcz/0fack6k5tz7SHb6cwLgJX7FyyVe8NXwi32vdGXZ3M7U9Xu57cHduviWS7dOeZ6barx1rljHroQksKmvPHXe1cMfBcZB/DejNnffN4MsFK1j11T+Z/JfPORbYhtaXm1wtqhjCaT1yPG+tXs6PJ7bww9Y5jH+4HWGn7ZOZej2H89yXX7MoYytr8zazfPcCXnv4cu/78mLfvWpzEbSQDjw86zFC3h7Fy/Pz/+Mk/lLFEUIIIYRvOX8xoGnUN2vEGzUcTp2DDlfCrgoAlUjf66e5E+tClXG4kg51172svUqw66vb6o9bsROcKk4Ds4H6KktyqMbpTg2LattFFRo3VCf8qs0tQQY6q/smXee4aneh5DVUbXW+ClautqKpn5H71QZYPMuuCjJxl7/q06Czv9Lp7i9C9dfCpLkTNU3dvspioF+QkefD1LoBBi43VO3PxXBmLOKlB2ZjG/wyqfc2wmSI4bopqfTJfZfnU9dQfFY2ZqTZwOtplP0dS38+WQqog3KMwwcribmmNy2Dq7bCnHglLWPy2Z6WjgMnJzKy0COjCHM9Wn4RJDSOchdShqgowrUsjh9z/gfbc25adFtaN3Gy6ZvVhAx/m2/2f8SQemtYmeakYec27gTcm760wCCCzDpFuQWnEtOSbWzdrpPQsimBnll6pV3tYzWNgPh6BNoPc+hw9Vx/Wv31fWaMa87Bf7zA6L7DSX0nm9apf2f8XfGeAWwg+tZJvD/vcTo6VvDho2MYPWAkzz37T75Zc1QdwSq19eXNvnvTxmuGaHpPf5XeO17kL1O3UOrlY3SWSxVHCCGEED7n/MVADetKHPyt0M40lWXYXAm4VSNR0yl0Z1kaVvX/RD8Df1IJdh9VCajFaq5OfnUW5pFWrGIU2JlrqyoiWqpiw5Wg+6m/bV03nE7eK3C423yq2pybzvIiO1MKHUwqUcmmmhOl+k5SfRpNBnqpgkJTBcVnKs5MVY3Mr6xaq5quioj3ixwsrlDbp7aypVp3hCoKngs2cp3aEe8vzFF9L3+VcS8foO3EaYybPImn+hzm7REz2Frj6wAnmVvSZ0BDcuYvYkONWgA9iwVPvcBS6zBmrv2EidNeYeaCe2HaI0z9plg1cHLsQCbExhKlCpnQgS8xd+1rDGhgwBAbR7TzKEfTXcnsRW7PeRhiYojQijhxrJygBvWJiKxPXFgp2ZmlKhGOVoWVq1XtfenZG9m4V6PN8OG0j7OqI20kIKERscFqyFksqIf8LOYmA3luQg+yZk5h3oGqwaPF9OOBh+uzauxIJr/7A5vWpbHstXG8sdBAxyG9iHGNYMuV3P3ijQQtf4kHB73CnLnfsXr5Sn6cO5tFawvdY+1M5+rLm3337vhUMfgHEhQaQrBrCglUBbNngZuBmEEpjG33ExOf+IbsM54rNV2qOEIIIYQQZ/KqGKiWbXOSrjIrzaARr5K5fKeOQ/31U/ebquzOFayhSlSCXGfaVbsT50lMMlVC7krQAtUKrpwwTCW5rjP7DrvOAU/mdq4Erlr1slLXmX91x9VvtPqfnytZVrcddic7LpAU5ah+FqsCZ0K+KnJUwbBD5dLhavuvDzDS6BxJ6vlVsGvaWKavaciAkZ3JmPIcs7adu4oxtb2Baxtl8cMX61RBVZNGQGwj4oOO8fMHX7E5V81yBNH89tvo/AdX1qdTcugweWFxxAWH0LlfB8zGVnTvFYnVlYweP0h6mTuQ4v321M7Ojgl3cFPLgUxfdUZF5VZLX/YdfDhiIitCVZGzZxO/5G/jx3UzGJxsoCI7m6IzHmD/K4YyecELNF0xjsdS06j+SoXpija0CAim58yfWJ27jTXuaTUTbgnCGBfvftwN9VvTKsHB5s++UWPLs+IFnK+vU2rbd5fa2pi4csIilmes40fXdGQBY1w/jeWhRVzL6Bdbk/bCNFblXWi0X6o4QgghhBBnc+XRXnOlGtU5titnLlKJlyv9CzVp7jPz2SrJDzYbSHJF1XVOnCc3qTqPXRXDrbqdVvVJgfeqChAX1Z0K4wmk4tS2YxZVsLTz0+gboHGZ6tS1LRVq+89ODC/MUL89nVuaKSqwkzSwPy2qr385jZkrBl5HfMZSlq45Izn368Sot+/D9NZInp40mznjn+b+jvcxTxvIX57t4f6kwrF3L4f1eOq36knvLlv4YOomWtx8LS2T6qOpZYfsVaFcvNue83NmZZGrBxMVG4DmKOL4kQLsWiDRcQHoKonPrZFs19ZX6cZ/8pd2nbg6qTcDk7tzTfe32Kfb2LF6m0qlq2kEtn+Q6QvGkrD4CUY8OJ+jNXNr9VjiOMK8ewdwR+f+J6fB7a/n9gHvsNsVSHe6x6XTWdtp8Qv35c2+e398HOx66xFGXD+MB1zTjY8ye/OpgxfY5zb6JETR593qImcTMx6Ixdx6DP/KeJdbY6ufHZcqjhBCCCHE2S6qGAgyGUhQuYVT5dyu6/qd6obrb6JVzVfZ+NdlKqFWSXYnlVw7VWKd6cnNa5Or4lSovwZVVCRfxBZFWjUaqu1RuSBHVV/lKkc6oeYbjRpdzCoFV4lkhHayRHAzqGUDQ4y8GGZkmL+BZmr9ozYncwrtpBQ6OeTlNrv5t+Ce956j7ZaXGd4jhdXx9zN+QjdCzsy/LK3pc3Mcx79azJYzagFDRBMS69k4sifz5PXseuFWNmwpJ7B+HEHqeOgn9rLvRBytH76N1mlf8q9/fM3WdgO4u2cDsrbtOfV9AG+35wJcl/ds2mcguU+Xk+tpYV3o0s7AodUbyb/ovuyUHDvCkeNB9H7xflrlLmbOZ8dPFpWG2Bt47pM/EznvUR56/FuO1yhsXOzbNrPLFkdysh+Zu/dzsOZ0IMc9bpxHt7Ij00jygD7Uu0A1WVtf3uy718dHjbqivRtZ99Ma0tzTRtJdX7LxKF2Yyh1X9mPQyQJnIC/++wT2nR/x+NXPsjS7uu2liiOEEEIIcTZjrDkipfKmJpjn7/fM8lCJdAs/gzvZbmBRSbrFSC+VfLu+2HuswsnCyqoz/A1VIdBcJWAFat4XFToxah3XPwqWU6nzvWqj14hzULXZpbLAILOBrmbNXTB8r5LjSjXPajHQRBUSLVW8Vqq/y1VhEKDWyVcL16ikzRXHdX3/H9TfaLXulVYjfd2/SKSzp9zJUlcbFadCJfut1LpNVJzrVLKfrG67cjbXWf/l7m1WxUqAgWhVgKSp9eaWOt3fHzii1j11vtUbAbRNfZsXOq8l5daprE/fSVp6EkNShhK/cR4/7j31xQDLVffzzIhwvnt2Cj8frU6Dq+hllcT3/xMDromnYF8GZZZomg94hNGjLiPnk9f454ocdL2UiJ73M7RvKMtTU5m//gB6+8e45zoTaTOnsGSHq8LwfnsuyJlDekUytz9+K60M2eRbm9HvpWe4PX4db475iB3uRNS7vvzikmjeuhXtb/4jo15P5c6Wh/jgrqf4dGf1tphJ/uubjGm5ijeeXUZRWCQR0VVTmH8lBQUV6MUHyAjuxZ8eHUzHGCc2LYCIhs1o3bcrMVlbSS9Q2+M4xv68y7hlzN306xCqxoGJwOh4Gia3o3NzO7t256pR4kVf3uy7V8endrqtmIKcPPJPTgWEXH0n/WLX8v7UZRz3cjBeqjhCCCGE8E1enYcvUPlrsAn81e2dZQ7eLdOrLvPQdfa7knD130abjsr/WafyUle667p05fS09wJUnEVFDuarGCr1JU4l9EFqdrZdZ59KZtzplWqTru5nqKTeqAqCBLXlZQ4nP5Y4ea+8+uy/zlp1f4ZK8H+2qSJCJfsrPNuhVvPEga8KHaQUOJij1kv3eiNPZ+0wimceDGbxYy/xfZYrstr2eS/z+jeB3DRpFG1OfhPZSpvbehN1aClL17uP2unsO/lg6KP8c99l3P/Jv/n32rlMfrIZh994lCen7ao6hnoRO9cdoPLQfD5bUqTu57P8/cVkVexm68aqb+x6vz21cXJs1lgeeWYlIXeNZ9rc8QwIW8W025/iK8/B8q4vI0kPvcm7n0/mz0NbULboFR7oMJQ3fqzxs5eGGK5oF485vj8pPy3g07WnptnTr/OceS9lY8pdjBi7hPKu9/HXT95jxr9e4eG7utDg5G/DOsn85DHuvu110ixXc+/f3mTG1+8w+bWR9OkYX/XLVF71Vfu+e9dGCCGEEOL3QWsTkKSXzuxDwMilnlkeKuG+LdRId5V0Lyu08+U58tjfItenCapWqUo41T5cE2TkZjPsL7XzZnlVYfCr8u/Gs5vf5spP7mDQC1su8tMHIYQQQggh/nu8+mTg90LTDAwNM5GiipiHQow8piZXIaDrOq7v7f4vztv6detHj6hDfPfFdikEhBBCCCHEb0odKwZ0suxg0yDRqBFv0DlSqTO3yMna/8kVHP50uO0aQvd8w7dbpRQQQgghhBC/Lee/TEgIIYQQQghRp9WpTwaEEEIIIYQQ3pNiQAghhBBCCB8lxYAQQgghhBA+SooBIYQQQgghfJQUA0IIIYQQQvgoKQaEEEIIIYTwUVIMCCGEEEII4aOkGBBCCCGEEMJHSTEghBBCCCGEj5JiQAghhBBCCB8lxYAQQgjh64yJ9PrrOO7uFY7mmSWE8A1SDFyQAUfYlZxoO4SjXe8n/aphZLa+luJAeakUQghRh5ia0/fxYVx9WYAUA0L4mFqKASu2hGs43vEe0rsNJ6NNT4pCrJ5lF8EYTkmTG8nsch/pXe9Rca6hKNTPs9BFwxnUnLyWt5FxVXWbXhSEBXiW/3fo/knkdLiPjMZx6J55pzE1Jq9FeyoqdxG+bT4x238gLPMQZptnuSGUssS+HOt0rzo+93Gk/Y3k1os8dyxfpIXSatQrfLh9HWty1rNg2SsM6RB68W803sTx5TZ11aXa99/a43Wp2nhYk/qTsmEz819pj8kz70zetKlzLuIYXpA3cfwa0iv1Lebs2cgveZv5dt37PD3sMk47b3SR22NtMZTpe3eydsUoEo2emS7e9OWmEZDUk6GvvsF761ew/Oh73B530Xvvu3x1/Jg78vTOnWwo2XPWtG7bONqYXY00QtrezhOfzmPh0S38kr2Wr5dNY3iP6NOTSmMzHli544w4W5l2R6CngfituEAxoGGvdw3ZjeujZf1M1PYVBDoakN/yGkqsF/N0sFKWpJLkGPDfu4B6W74nuKIe+Vf0ptjf070WQknjdpQ7DhC66xuid63FT/sDhS26UWK+mL68o5ujKGnYh2NXXkOp3/kPge4fQaWhiIDDGwnIP4Y1/wj+WfuwVrrSfRPljW7gRKwJv/0LqbdxAeG5RsqaXU9euPvZ4uMMxA6bzOsvd6N4diqPDUlhQWE3Hv9sMv3r11KDnsabOL7cpq66VPv+W3u8LlUb9T4b2YK+z/6Nj3+azE2NLedMCrxpUzd5dwxr500cf9qlvsPLdwXw49P3MazHvfy/RRb6vvF3Hr22+oTWxW2PKWkQk+aNppnTdsbJJW/6crGSeOcUPv5uHF0Mm/ji+bGMvnE83+fKqSrv+PD4sW9j1h13cNc1g05Od982XRUOlRz9fiUH7aqNsSH9JjxMu8Il/H3EKMbcN53Vph48/EkKN8TUeJUxBBAU5GDr5LsZ3OFGBrmnAbyyqMzTQPxWnH9UaxGUNGgA2T8TeXAP/rl7CN2xEn+tAUWxEVUDzNqEnE73k9GsIU73Soq5ETkd7yOzcXzVPGMDiqP8saSvICz7GJbCwwTvXkmAI07F8ZxF1wsI3jKH2J3rCcw5gt+JbYTv34XRWA9bzdJY86MivjtZ7YZypOt9HOlwCzn1Y3F4FldxXdqTTG6r2zl61f1VZ+w7DSK7fvUZe43K+G4UhNkJ3PEdQeXumafT4sjr9ADpbduqYiCEojYPcPjqB9X0AMcTQjxtIqiIDMZ4fB2hrv0qPkbggV8IKPenIiTk9Ceganv1tPn8cHQhf70x0jfekE3NufWR7vDlBMZN+IqVS77ireET+V7rzrC7m+E6UWGI78ek3dv4+q1rifAcFC26N6k7tvD5K50Ics3zIo5Pt6mrvNh3nx4/6v9NRqQyumcpX9/7OLP3n3wFrsGbNnWUF8fw0o2fpnS9LoHjc6bz9ufr2L05jcWpU5ifHkXrLg09bbx5TKtoIR14eNZjhLw9ipfn55/+XuJNX4q142heSQnn0xtu4eEn/sHX81exeeMBcis8DVwCmnDDK+/zxaEt/HLiF+Z9/QAtz/zYyBBO65HjeWv1cn48sYUfts5h/MPtCPMcrzrLl8ePXkLGpk1s+WVj1bT2MJG330GbrFmkPPMD+a6AjoP8a0Bv7rxvBl8uWMGqr/7J5L98zrHANrS+vMYg0kIICXVyfNsG9mzfzV73tJdjhT70WvQ7cf5iwFyPCj8dS14GetwNHO18E0WWTPwLdSpD61Ul+hX7Cd+1HS2mJzlxoehaACVJ3Sm1bybyUEZVcKNFzdcxVNbIuh0nsJTq2AM9RYWL7qyRJGs4rYE4nYWYKqpbmLA1vJGshpGYMn4ievNCIjNLqWh0PbmxQZ42Go7onhxv1YFy/Qghe74leutiIg9sI6Cw2BNf7dOhL4nftIyQvCLUpp1NzyZ081ziduzA5CwmaMenxK39l5rmEnm82NOmGGOZA0d4I2xGT2Q/VbxYKrAUqbjuOR6mRrTvnURoWGO6dG902hO3rtKi29K6iZNN36wmZPjbfLP/I4bUW8PKNCcNO7dxv5k4Mxbx0gOzsQ1+mdR7G2EyxHDdlFT65L7L86lrKFaPjTdxfLlNXeXNvvvy+FEvouyeNJj+vZ/mw6VHsJ3rdcyrNnWTN8fwUo0fHMc4fLCSmGt60zLY/eBgTrySljH5bE9Ld5+s8u4xVQzR9J7+Kr13vMhfpm5BvU2ezou+XJeT9Bz9Rxrawrhu1lJ+yExjSdoHPHN3i1OXgmjh9Jz2Hi/eGcr6l59gzNBU5qwrxlS93M2fVn99nxnjmnPwHy8wuu9wUt/JpnXq3xl/V/wFkoffP58eP2fw7zqKR28z8m3qW2zwpD8ueqW9RnuNgPh6BNoPc+hwjSh+EYQHlqocKYbIEPPpeZH4TTnv81m3BKoHugJjhV0l5sE4zcHYzZUYbJVq9PjjcD+qKsnPX6MS/3wqGvcir3FP8iIKCN21Hkv1eKg8jrVMozwumQqLKw02oFtDcbgSaO3cabHu35S8xD9gyvyFoDLPaDY3oSAhGL99i4nIPIy1SBUmR5YTlqNi12tUtT2GWAobJeHMX0nMttUEZx/EL/8o/lnbCSyseUrkzGfImewYygowlbu+HKBul+dhLstXk5pnr65oSwncv4IAQ0uy2vcnJ6knWcnJaOlLCc+t/lKBR+VGPhz5Iv+YNJ7np25QEes+Q0wMEVoRJ46VE9SgPhGR9YkLKyVbFXBadDQRVacgKFr+KuNePkDbidMYN3kST/U5zNsjZrC11B3Gqzi+3Kau8m7ffXf8uOl6ra9kXrWpg7w7hpdm/KBnseCpF1hqHcbMtZ8wcdorzFxwL0x7hKnfVGVP3m2PgZhBKYxt9xMTn/iG7HOdPPWiL8xX0KFbINmblzD7iYcYcd0DvPIF9Hr9HZ7pH+ZOyAz1b+JPt0eyeeIYXpq5hFXfLGBOymw2qbf3alpMPx54uD6rxo5k8rs/sGldGsteG8cbCw10HNKLmDpcDfj0+KnJEEe/pwYRnfYOb5/5KUMN5iYDeW5CD7JmTmHegVMdG6L8cR4pp/3U+SzJ2MSydf/g0VsbYfEsF78dXjydnVgOzSP+l88JKzhX3ejAcmQZoYWhFCckYDr8E8ElNdrpOYTsWom/SSXNne8lvbvri7Z93b/Io1WqgexpVk0PbMmJ5G7YCpYTdSDz5HI9MAabwUJ5s2Gkd3Nd/uOa7iInygyWoKoK1araWJ1Ysw9g+q+/A2ro5lDshhL8M/disav9UUO8IqY55X5n7pWTnJ8/Ycb4j1mfda5naF1mZ8eEO7ip5UCmr6rxTnNSBbumjWX6moYMGNmZjCnPMWvbGcWUW21xXHy5TV1V2777+vgRF1bbMbwU40cjILYR8UHH+PmDr9icq2Y5gmh++210/oM7S6vh/HG0iGsZ/WJr0l6Yxqq8872B1d6XFliPmFAnhxfPZckPm9m9ZQPfTXqRjzeF0XNwV1xXhhubX0aSMZMtazJOXeJ7BtMVbWgREEzPmT+xOncba9zTaibcEoQxLp7ouvzRwEm+N35qMrS4ncHdbSx/8zNqnvCvyf+KoUxe8AJNV4zjsdQ0SjzzXZz7Z/N4m55cl9Cabs2H8OrySG57910e7xnoaSF+K877dNZsJRix4rCqZFu3YayoUMPIjNOi7qsk3lhjrOnWWMoDDRjsTiqjk7CdMaa04m1EpX1Ewuo5xK39mIT161UkVUQUZquY1TScwW3ISu6EPed76u3ae3pCr6nkmyICd31G7Lp/n5rS5hK3dRNmd1vPCvr5ngiXkKqY85sno2csJvLwdoIPLiMmbSFBNCOv4R/OW0H7CmdWFrl6MFGxAWiOIo4fKcCuBRIdF4CenU1ujRcWQ/32dG5ppqjATtLA/rSo8TrhTRxfblNXXcy+++L4ERd2Mcfw/zp+8OvEqLfvw/TWSJ6eNJs545/m/o73MU8byF+e7eFOvr2JE9jnNvokRNHn3erkexMzHojF3HoM/8p4l1tj1bulF33plZXYdQMhESGn3l8dxziW4cQSFUmw611fvUe6Lsw1GM48cVWDes/FcYR59w7gjs79T06D21/P7QPeYXcd/ojbl8fPKUYuH9yfxrlL+XpJwTlyGo3A9g8yfcFYEhY/wYgH53P0XPWSm5Oyo5tY8PRLfHEknt63tlY5oPgtOX9tX5mFtVzDFp5w6syBKYGyYFUSFGSdWtEYRdFlXbGVrKLehp/ws7YmJ7H+Oc42ODHYijDZLJQmtsZm309wluezNBeL62c82+E88S0x+w6eVmy4aCXZWJ1B2AJNmNyX7JyaTGVlVS96FdlYbAYqohupJ4p7tf8ecziVFofqv/q7CIojG79iO06/IJyn9W8gsusQRj03lCvr8merNejZG9m0z0Byny6EeI6FFtaFLu0MHFq9sepLSC7+Lbjnvedou+VlhvdIYXX8/Yyf0O3kOt7E8eU2dZXX++6j40dcmNfH8BKMH0NEExLr2TiyJ/PkNdR64VY2bCknsH4cQeol35s4pQtTuePKfgw6mXgP5MV/n8C+8yMev/pZlmbrXvVF+X72HoDEru0I9/SFuTFNmhopPniYPPXmbN+2mV22eDr0SjpvUlbVJo7kZD8yd+/nYM3pQA41L7yta3x6/FQzNaPH9fUp+vZb1tdI1aoZYm/guU/+TOS8R3no8W857k1xqIpPV40pfnuMseaIlMqbmmCev98zq1oZJmcMJQ2aY9NKMRoiKGnchRLrMcL2bPV8J8BMReL15IYcI3LLWqwVufhVhFOceAWO4t34l1UNN92iEuegGMqjLqegWTeKAwsJ3r6M4LLq0aMS+EbXkR+QQdiBwxiM/jjNnsmoigi7Q1XDBZhMDSlqcDkV7gvOTCrpjqQiIgFH5QnMrlB6ifobSUn9VpQGu/49BAO6OUj1HUd5gBNLaXlV4m7wx+4fgsMSRkVMIpWOTPxKneiaHYOjRhljrU9xbBjm49vwO/OTP6cTR1RLisOCMKiCwGAIoDKqPQUJkRiPpxFc4ClQXMxtGfX137i3fw/aGVfy6beZ5yiW6hhnDukVydz++K20MmSTb21Gv5ee4fb4dbw55iN2FLpeTQNom/o2L3ReS8qtU1mfvpO09CSGpAwlfuM8ftxb7l0cX25TV3m17z48flzU61+Dpg2IqdeYjnf0pVFuGmv2Ogg2lVFQ7Hlt9aZNXeTVMbw040cvqyS+/58YcE08BfsyKLNE03zAI4wedRk5n7zGP1fkoHsTx1ZMQU4e+SenAkKuvpN+sWt5f+oyjqu3U+/6yuW4qRO3PXA9zWwHSC+J4MpHnmVUr2I+f3IqK4+qx734IMcj+jJs9C1cbimi1BBKbMtOXHtrG5zfz+LrtUXoxQfICO7Fnx4dTMcYp8oDAoho2IzWfbsSk7WV9ALPOKyLfHn8VB0BDHHXc/+zXTn2j0l8venMnwI1k/zXNxnTchVvPLuMorBIIqKrpjD/SgoKKlQcC62GP0LfFoEEhEUTf0Unbnr+af7UroRFL7zGjwfP+zGC+B/Q2gQk6aUz+xAwcqlnVk2uf3SsC3n1E7GZVeWgXkCC968k2PNlXD2kI8daNcWy8zMiczy/FuT6RaEWg8kN2EXM+lVYHRq2xMEcj/fDWJaDNW8fQUd3YbXVSIe1IIqSh5AXevZZcy33B+K37qr6BR7XT4vGtacwrhEV/gHorsuXyjII3rWU4JLqIWzEHn4FBaqIKQ8Owen6GLSyEMvxlUQfSHd/oqEHdeBY2yupPK1C1TFmLiB+z9GTSbwe3JnM1g0J2DSXsKKzX/h0/0YUJLajJDwCh0FV3RVq/7I2EH7o4BmXOEVw9dRZjB+ssWTEnUxccOoJV6e5/pGUkeMYO+Y6msdA7qalzHr6JWb/UvWRo7XDE8xadDPb7xpA6sK8qmNiiOGm2Qt4vvnnPHjVy2xwnZGoJY6bL7epq2rZd18fP8a2jzP3h1E0Pu3nIJ2ceGc4/casxPVW602bOquWY3gpx48lsTf3T3yYm69pRnSAk2L1Hrd29gymvvwdGdUH2ZvH/TQm2k/5njc7zeaPPd7igOdUrld9GaJoP2Ycj4zoQfNYM8X71vBlSgoz5h/lZAloiqHj6LGMHN6TFg2DMVYUkr1/B4ufH8Pflni+LGoIp9V9Yxh5f2+Sm0bh7ywma/caPnrwEeZs8WxQXeXL40cxX53C/K96sOSGPkxZdcaJA0MCQxcv5cmuZ3+uZFvyDH1v/Tf5hNP5mZd4aHBbGjcMx2LLI2PTKha+No0PFqZzrm9WiP+dWooBIYQQQgghRF119ql4IYQQQgghhE+QYkAIIYQQQggfJcWAEEIIIYQQPkqKASGEEEIIIXyUFANCCCGEEEL4KCkGhBBCCCGE8FFSDAghhBBCCOGjpBgQQgghhBDCR0kxIIQQQgghhI+SYkAIIYQQQggfJcWAEEIIIYQQPkqKASGEEEIIIXyUFANCCCGEEEL4KCkGhBBCCCGE8FFSDAghhBBCCOGjaikGrNgSruF4x3tI7zacjDY9KQqxepZdBGM4JU1uJLPLfaR3vUfFuYaiUD/PQhcNZ1Bz8lreRsZV1W16URAW4Fl+KXnblxf7bgilLLEvxzrdq9rcx5H2N5JbLxLds9jnaaG0GvUKH25fx5qc9SxY9gpDOoSqR+AieRMnsCk3vvoBXxzazJoTaXz93WSGXRVeY4BrhLS9nSc+ncfCo1v4JXstXy+bxvAe0f+Fivji+rIm9Sdlw2bmv9Iek2feSZfqGP4e/Zrj5/fYpgZri6FM37uTtStGkWj0zKzhgmOsrrrIY3hhGgFJPRn66hu8t34Fy4++x+1x1ZEu5vleV+PUQTJ+ZPz4kAs8Jhr2eteQ3bg+WtbPRG1fQaCjAfktr6HEejFPBytlSSpJjgH/vQuot+V7givqkX9Fb4r9Pd1rIZQ0bke54wChu74hetda/LQ/UNiiGyXmi+nLC1715c2+myhvdAMnYk347V9IvY0LCM81UtbsevLCzZ42vsxA7LDJvP5yN4pnp/LYkBQWFHbj8c8m07/+xbwUeBFHC6PHtPdIGaSx9LHh3HPjWOYevZLRn01nUBNPZmRsSL8JD9OucAl/HzGKMfdNZ7WpBw9/ksINMZd4jHnZlzGyBX2f/Rsf/zSZmxpb1Kg706U6hr9Hv+L4+V22OcWUNIhJ80bTzGk760RE7WOsrrq4Y3hhVhLvnMLH342ji2ETXzw/ltE3juf7XM/R9vq1pa7GqYtk/Mj48S1am4AkvXRmHwJGLvXM8tAiKWh3K8XF3xG7cz/ulMrUhBMdr8V+9HPqHcpBszYhp801VOQtJXb3IfX0UcyNyGnbC9uJRdTbn4HBmER252twHppLvSMFrhZqkPyBnA59sR2fR+yB7Ko3KM2ArjtPvlnpoVeRmdwE/y0fE57vrJqp+VER14GCuD9g8/NDdYJ/5hrCjhyr2j43A46wKyho0Iyy4DCcBh2tshDr0e+JOqK22dWktr682XcthoL2t1CS8zVx+4954saS1/4myrO+INbVxjXPRYvg6qkf8eJgA0tH3MnEBTl1/9MD0+U8tOozBm1/ggH3LKJA7bAWcSOTNr1K4sxbGfLSTvT4fkz84VVafjeaux/6HtdriBbdm5Qfp9Hqq/u56y9rKDbWHscR0p8pe14hauINDJ9+CPdoCepJyuYZJM+6g0EvbMGhZmlmE4ZKu/u2i7nrs8xbcAM/39KTicsrq2Yawmk94nFG3nM1LZMicB7bxk8zX2XKm+vIP/mgmanXcxgjHruVqzokEuXvpDQ7nQ2vP8kTb+zwsi8jzZ6Zw9Re+/l0yg9q26dw7ZK7uOXpNOxVq3h1DKvj1zm/5vjx5jj/1tp4DpMW0oEx30yn1Wd/5sP46bzacTZ/7PEWB9wNvBhjdZUXx9Cr8aPmWTs+yazZLZnX/yE+2V7m6eB03ry21NU4dZKMHxk/Pub8Ja65HhV+Opa8DPS4Gzja+SaKLJn4F+pUhtarSrgq9hO+aztaTE9y4kLRtQBKkrpTat9M5CFVCLjaGC1qvq4GRLnrXhXHCSylOvbAiFNJcY3kXA0hnNZAnM5CTBXVLUzYGt5IVsNITBk/Eb15IZGZpVQ0up7c2CBPGw1HdE+Ot+pAuX6EkD3fEr11MZEHthFQWHwqfm19ebPvejHGMgeO8EbYjFXRdL962CwVWIqKasRXTI1o3zuJ0LDGdOneqEbhUndp0W1p3cTJpm9WEzL8bb7Z/xFD6q1hZZqThp3bEKYOkDNjES89MBvb4JdJvbcRJkMM101JpU/uuzyfWvVC6k0cLTCIILNOUW7BqfFUso2t23USWjYl0DNLr/Gi5HrcA+LrEWg/zKHD1XP9afXX95kxrjkH//ECo/sOJ/WdbFqn/p3xd8V7niwGom+dxPvzHqejYwUfPjqG0QNG8tyz/+SbNUerxoZSe18Odk8aTP/eT/Ph0iPYTm74Kd7se131q46f32EbN0M0vae/Su8dL/KXqVtQL6lnqH2M1VXeHENvxo/rUpGeo/9IQ1sY181ayg+ZaSxJ+4Bn7m5BYPXjoNT6fK+rceooGT8yfnzNeYsB3RKoHsQKjBV2lSwH4zQHYzdXYrCpas7sj8P9gKskP38NkYfyqWjci7zGPcmLKCB013os1Y915XGsZRrlcclUWFxpsAHdGorDlUBr506Ldf+m5CX+AVPmLwSVed7BzE0oSAjGb99iIjIPYy1SyfmR5YTlqNj1GlVtjyGWwkZJOPNXErNtNcHZB/HLP4p/1nYCCyuq4pzhXH15t++lBO5fQYChJVnt+5OT1JOs5GS09KWE59rccU6q3MiHI1/kH5PG8/zUDXX/rJxiiIkhQivixLFyghrUJyKyPnFhpWSrAk6LjibC/dCrBH75q4x7+QBtJ05j3ORJPNXnMG+PmMHWUncYr+Lo2RvZuFejzfDhtI+zqpccIwEJjYgNVsPbYuFcV5qZmwzkuQk9yJo5hXkHqlJ4LaYfDzxcn1VjRzL53R/YtC6NZa+N442FBjoO6UWM69liuZK7X7yRoOUv8eCgV5gz9ztWL1/Jj3Nns2ht4Tk/8TlXX266fs721bw7hnXTrzl+fo9tVCtiBqUwtt1PTHziG7JrDKvT1DLG6irvjmHt4wfzFXToFkj25iXMfuIhRlz3AK98Ab1ef4dn+oep15qznfP5Xlfj1FEyfk6R8eMbzlsMnOLEcmge8b98TljBuao5B5YjywgtDKU4IQHT4Z8ILqnRTs8hZNdK/E0qae58L+ndXV+07UuxKh+1SvXE8jSrpge25ERyN2wFy4k6kHlyuR4Yg81gobzZMNK73e+Z7iInyqwStKCq6tOq2lidWLMPYPLiHfB8fZ1yoX3X0M2h2A0l+GfuxWJX+4OFipjmlPudGclJzs+fMGP8x6zP8rUngZ0dE+7gppYDmb7qXB8LVrBr2limr2nIgJGdyZjyHLO2nVFMuV0gjn0HH46YyIrQYczcs4lf8rfx47oZDE42UJGdTdEZY8H/iqFMXvACTVeM47HUNEo8801XtKFFQDA9Z/7E6txtrHFPq5lwSxDGuHii1bPFUL81rRIcbP7sGzLP9XQ4w/n6uji1HcO67FcYPyf9ftpoEdcy+sXWpL0wjVV5vpjue6u243zh8aMF1iMm1MnhxXNZ8sNmdm/ZwHeTXuTjTWH0HNyVM3924nzP97oap+6T8SPjxzectxjQbCUYseKwqmRbt2GsqFDJrhmnRd1XSbyxxvuPbo2lPNCAwe6kMjoJm7tqPkUr3kZU2kckrJ5D3NqPSVi/XkVSRUSh5/sCbhrO4DZkJXfCnvM99XbtPT2h11TyTRGBuz4jdt2/T01pc4nbugmzu61nBb22N8cL9+XVvhviyG+ejJ6xmMjD2wk+uIyYtIUE0Yy8hn/wybNxNTmzssjVg4mKDUBzFHH8SAF2LZDouAB0laDn1kikDfXb07mlmaICO0kD+9Mi0LNA8TZO6cZ/8pd2nbg6qTcDk7tzTfe32Kceux2rt6mX82oage0fZPqCsSQsfoIRD87naM3XdzXGcBxh3r0DuKNz/5PT4PbXc/uAd9jtCqQ73ZcCOZ21FXW19OWFizmGdc2vOX5+j20C+9xGn4Qo+rxbXbhuYsYDsZhbj+FfGe9ya+zZpzZ8iTfHsNqFxo9eWYldNxASEaKe0R6OYxzLcGKJisT14WOVCz/f62qcukrGj4wfX3PyITtLZRbWcg1beMLJ66AxJVAWrNLigqxTKxqjKLqsK7aSVdTb8BN+1tbkJNY/tc5JTgy2Ikw2C6WJrbHZ9xOcVf1ZmmJpTF6LdjhPfEvMvoOnFRsuWkk2VmcQtkATprJ8zDUmU1lZ1YCsyMZiM1AR3Ug9cd2rnVstfXm17+ZwKi0O1X+N7yI4svErtuP0C8J5Wv8GIrsOYdRzQ7nSfa1J3ee6dGfTPgPJfboQ4jkWWlgXurQzcGj1xlNfxvVvwT3vPUfbLS8zvEcKq+PvZ/yEbifX8TqOm52SY0c4cjyI3i/eT6vcxcz57PjJx9AQewPPffJnIuc9ykOPf8vxM67Xsm/bzC5bHMnJfmTu3s/BmtOBHFwXmjmPbmVHppHkAX2od0bRW1NtfXnj4va9bvk1x8/vsU3pwlTuuLIfg04WrQN58d8nsO/8iMevfpal2aqRD/PmGLrVMn4o38/eA5DYtR3h1fPMjWnS1EjxwcPkeV5can2+19U4dZSMHxk/vsYYa45IqbypCeb5+z2zqpVhcsZQ0qA5Nq0UoyGCksZdKLEeI2zPVs93AsxUJF5PbsgxIresxVqRi19FOMWJV+Ao3o1/WVX5rFtU4hwUQ3nU5RQ060ZxYCHB25cRXFY9MlQC3+g68gMyCDtwGIPRH6fZMxlVEWF3qOq8AJOpIUUNLqfC4lrHpJLuSCoiEnBUnsDsCqWXqL+RlNRvRWmw698EMKCbg1TfcZQHqIq1tFwl7l705c2+O504olpSHBaEQRUEBkMAlVHtKUiIxHg8jeACT4HiYm7LqK//xr39e9DOuJJPv808R7FUxzhzSK9I5vbHb6WVIZt8azP6vfQMt8ev480xH7Gj0PVqGkDb1Ld5ofNaUm6dyvr0naSlJzEkZSjxG+fx495yL+OAX1wSzVu3ov3Nf2TU66nc2fIQH9z1FJ/urP7iupnkv77JmJareOPZZRSFRRIRXTWF+VdSUFCBXnyAjOBe/OnRwXSMcarHPoCIhs1o3bcrMVlbSXf9pITjGPvzLuOWMXfTr0MoutNEYHQ8DZPb0bm5nV27c9G96cu1SWr8NmjagJh6jel4R18a5aaxZq+DYFMZBaqo9Hbf66Rfc/z8DtvotmIKcvLIPzkVEHL1nfSLXcv7U5dxvPrMZW1jrK7y5jh7NX5yOW7qxG0PXE8z2wHSSyK48pFnGdWrmM+fnMrKo65j6MXzva7GUa3qJBk/Mn58zPl/WtTN9Q9vdSGvfiI2s6ocig8SvH8lwZ4v4+ohHTnWqimWnZ8RmeNJuly/KNRiMLkBu4hZvwqrQ8OWOJjj8X4Yy3Kw5u0j6OgurLYa6bAWRFHyEPJCzz5rruX+QPzWXVW/wOP+adH2FMY1osI/AN11CU9ZBsG7lhJcUj2sjNjDXT8t2pzy4BCcBpWSVxZiOb6S6APpGLztq5Z9d9H9G1GQ2I6S8AgcBh1Dhdq/rA2EHzp4xiVOrp8WncX4wRpLfOWnRV20UFqNHMfYMdfRPAZyNy1l1tMvMfuXql/9sXZ4glmLbmb7XQNIXZhXdUwMMdw0ewHPN/+cB696mQ2uD49qieN6zK8Yv5B3RoRxYt9ONn67gM/e+oINmTU+jzQkMHTxUp7sqh7MM9iWPEPfW/9ddbbHEE6r+8Yw8v7eJDeNwt9ZTNbuNXz04CPM2VKdYVmI73M3Dzw6kK7tGhIZoMrH7MNs/2QiY5//kQLNu76MbR9n7g+jaHzavwLl5MQ7w+k3ZiXura913+uwX238KL/HNqcx0X7K97zZqeZPi3o5xuqqWo6h1+PHEEX7MeN4ZEQPmseaKd63hi9TUpgx/2jVJYhev7bU0Th1lYwf173TyPipu2opBoQQQgghhBB1lW9cwC6EEEIIIYQ4ixQDQgghhBBC+CgpBoQQQgghhPBRUgwIIYQQQgjho+QLxP+hDSV7PLfOr21gU88tIYQQQgghfnvkkwEhhBBCCCF8lBQDQgghhBBC+CgpBoQQQgghhPBRUgwIIYQQQgjho6QYEEIIIYQQwkdJMSCEEEIIIYSPkmJACCGEEEIIHyXFgBBCCCGEED7qN1sMBBk12loNdDKB5pkXY9Lo7KdxmZQwQgghhBBC/J/9ZtPq5v5G7g400KW6GNA0egQZ+WOAgaZSDAghhBBCCPF/Jmm1EEIIIYQQPkqKASGEEEIIIXyU1iYgSS+d2YeAkUs9s07pFGikhwlCDRp+6n6xU2dzuZMFFTrlaHQPNnKbSefjfAdr9ap1XPwsRiYEaewvtTOzHNoHGrjaZCBClR5+6JQ6YYuK86U7ThWr0cCAAAOtVX8GFatEg0g1HVQxXleNnJrGoFAjXVWMXAeYPbEOVjj5tEwnq7p/tU4bPyM9LRrxqo2m2hSq/vaUO/hXBeoeXKW2J6hSZ42aCmps98XYULLHc+v82gY29dwSQgghhBDit+f8nwyo5Lu+WSXURg2HKgIOqgTcqm53V4n0vX6a+zr+QpVIu3Jpdde9rL1KwOur2+qPW7FKwl1JfAOVudc3gkM1TndqWFTbLqrQuMFc1c7V1y1BBjqr+yZd57hqp2qJ8wpVW52vgrkKkqYq8b9fbYDFs+yqIBN3+as+VUWxv9Lp7i9C9dfCpKE2AU3dvspioF+QkefD1LqqALlcFTsX6E4IIYQQQog66fzFQA3rShz8rdDOtFIdmysBt2okalVn3F3n3q3q/4l+Bv6kEuw+qhJQi9VcnXz38lPSilWMAjtzbVVFREtVbLgSdD/1t63rhtPJewUOd5tPVZtz01leZGdKoYNJJTpFak6U6jtJ9Wk0GeilCgpNFRSfqTgzVTUyv7JqrWq6KiLeL3KwuEJtn9rKlmrdEaooeC7YyHVqRwI87YQQQgghhKjrvCoGqmXbnKSrLF4zaMSr5DvfqeNQf/3U/aYqoXcFa6iS+iDXmXbV7sQZxUC1TJWQu4qBQLWC64x8mLHqzL7DrnPAtUDx/Dmn6mWlrjP/6o6r32j1Pz8VJ1Tddtid7DhP3y45qp/FqsCZkK+KHFUw7HBAuNr+6wOMNHJtkBBCCCGEED7goooBVxJenWO7cuYilUS7TuCHmjT3mflsleQHmw0kuaLqOifOk9Gr1dyxTubd1e20qk8KvFdVgLio7lQYTyAVp7Yds6iCpZ2fRt8AjctUp65tqVDbX1K1WAghhBBCiDrvooqBIJOBBJU1O1XO7bqu36luuP4mWtV8lY1/XaYSapVkd1LJtVMl1pme3Lw2uSpOhfprUEVF8kVsUaRVo6HaHl1VKEdVX+Wqyjih5htd30kwg1kVBRHayRLBzaCWDQwx8mKYkWH+Bpqp9Y/anMwptJNS6OSQl9sshBBCCCHE751XqbfrV4OeDDHxVKDmvqb+uEqe96uk2VUMuBL+KJX8F6l5OyqdbFPLXffzVGLu7Vl2W6XOCtVeU8n74FCT6qvGl4vPotExyMgTqt1TARr+KtXfU+HZHrvOdzZ1Q8XpHWzi1XCV8KuCoeZOOlXhEKIKAte3mVeXOpha4GBKsZPVdlXIeNoIIYQQQgjhC7wqBgpUAq1ya5V4w84yB++W6ajc2X1tzn51w3XufaNKwlVOzzqbSrjVokNqfvUlRbVScRYVOZivYuSoWHEqWQ9Ss7NVcr9PFQkqrLtNurqfoZJ4o0r2E9SWlzmc/Fji5L3y6rP/OmvV/RmlTn5WxcmacicrPNuhVvPEga8KHaSoImCOWi/d640UQgghhBCibjn/vzOgEu7bQo10V0n3skI7X7qz/9++AE0VCdWJv9qHa4KM3GzG/W8evOn69wrcrf7v5N8ZEEIIIYQQv3defTLwe6FpBoaGmUhRRcxDIUYeU5OrENB1nTWeTyyEEEIIIYQQVepYMaCTZQebBolG179ArHOkUmdukZO1UgkIIYQQQghxmvNfJiQuSC4TEkIIIYQQv3d16pMBIYQQQgghhLfg/wNMXmauWVJ6xAAAAABJRU5ErkJggg==;" vertex="1" parent="1">
          <mxGeometry x="20" y="800" width="771" height="110" as="geometry" />
        </mxCell>
        <mxCell id="tknetBVRxJH12qnPuVGs-78" value="" style="shape=image;verticalLabelPosition=bottom;labelBackgroundColor=default;verticalAlign=top;aspect=fixed;imageAspect=0;image=data:image/png,iVBORw0KGgoAAAANSUhEUgAAAyYAAABnCAYAAAD121ZmAAAAAXNSR0IArs4c6QAAAARnQU1BAACxjwv8YQUAAAAJcEhZcwAADsMAAA7DAcdvqGQAADfnSURBVHhe7d0JfBN1/v/x1yRNeiQtbWlLDyiFAgrlvkFRQEARD7xQl2Pl74EX6y1eCCKgiCugKyse7P5cXHRFUFBRBBUUuS85LFSglBZKWwq9rzTz/06SloJAU5e10H6ePsZmZr75fmcm3ybfd2amaD3tbXQ8smdfTuj9Kz1zQgghhBBCCPHHMHl+CiGEEEIIIUStkWAihBBCCCGEqHUSTIQQQgghhBC1ToKJEEIIIYQQotad98HEZtbpYNXpagbNsyzcR8376rSSWCWEEEIIIUSdcN4P7Vv66dweoNPdoruDiaZziZq/2V8nviKpXIBMre5ibtYPjL8qwLNECCGEEEKI+kvOOdQKM3HXX0mL49+zYlWhZ5niF0vfiW/w/u71rDq6kS82vMNjw1sRUFsBTAsi4d4pvLNzLSsz17Lw26kM69qg8syV1wJaMPiVd/hw/yZWZfzEguVTua1XSJXOpxHY6UYe+s/HLDqoyhxZzYJvpzPq8rD/QQf1si1zS0b/uI01eTurTJuZdqvNU0A5V8enCt82t/Pqnp/5YdU9xJk9C3+Hc1WPEEIIIcQfRYJJbTDH03doS3K++prNlbnEj04T32LSyAB+fGoMd/Ybw8yvLAx4YzZj+9fGWRUTjYa/xKtTe1MwfzLjhk9maU4vxi6YytWNa9BttGD6vPY2z9xs4ttH7+Kea57mk7RO3Lfgr9zY3DNiNsdy1aT76JSzgvfGjOWJu/7GBnMfxswbz6CIc5zKvG3LFIAtsJxd0+9kRI+hDHdNt/Da0qKKAufm+FThE38TkxbeTwtnKZX/uNDvcK7qEUIIIYT4I3k1guoa4OThICfPBzuZ0sDJM4E611mNobRbb7uTlxvodD5lDOln1ZmsnnOXr7uhLqqesaqeCaqOqWoaH6Rzo6pHra5kVWPVG+26q8wLav0gH8+K02iv6ntO1f+iKnu3v074Se3rtPPTuV+1N0mtN8o8GejkJrVN7mI6PdTzr1DtB/0XY19T9FVMStzCgtl9CfHUo4X357mdm5j/cjfsp6nbnDCI/hcf48dFGyn2LMOnBT0HRpPx0RvMXbSFpJ838c2kmSxNbUi7nrGYsdBr9o+sXHRzZTuVAgYz9cgPPHWF5Xdtz2n5tOK6sZfA4peZMOVz1i77nHfvfIWV2iXcNqql2h4v9z3wEoYMDSVx1gu8q/Yrcf1K5t//MsuKOnPTqItd9VB+gAU3DubOu9/i8y9/Yt2S+bz29KccsbWnXesqHcAUQrsxE5n103K+ydjE19vn8fwDnQg+aZ8sRPQdxVOLFvFp6mZ+OLqJZYmfMv2BGralBRKk+s6RndvYuyuJfa5pL0dyne71XhyfmtCCunLv+2MJemcs07/I8SytuXNVjxBCCCHEH636YKIGfdFqvBapSjrKNVLUZDXr9FaD+hEqURhjwjzdGOarIKJmjHWd1eA/2nislhrrC9RYzqkexKh6YlQ95bpGmlpmMel0D9AZWDEe1HSG2Jx089FR1ZChprMNpINMGjnluAb38b46f1aTyhmKCh02ndtVMInRNJIdkKbqClGjxYt8NNegUVP/62GBgWo/xqkANEoFm4vUtp2ludNyHvqaV8Z8ROktL/Lc6Kb4mCIY8Op4+mf/kxcnbSDfODAnMdNi6CBiM7/j29WVsUQdlAxSk8vUoLo/rQPdW2Fp1onWEcf5ZWMq5TjJOpSJ3rAhwcar5hdKdLOGrnBoCgsjhAwy0p2/Y3tOTwvvSPt4JzuWrSfwjtks/nUuwxqtZ+1GJ017tHeFAW/a0mx2bOr1zDua6+ojLoW72LVLvTYJLag4F6SXOdQ+VtAIiG6EzXGQlAMVS/1IeOZtZj3dkpR3J/Ho4LuZ8m4m7Sa+yfiRUZ6ObCLshsnMWfgQXct/5INHH+OxGx/khfHz+WZdmjqCbtW3pajjG2IroswnnIZBlt/0C2+Oj9dM4fSb8RL9fpnK+Bk7KPLyNfqNc1WPEEIIIUQtcI/nvKKxrVBjTr7GbDWeLlVL4n3VIEwNwCq+RDZCQZwKBzersNFPDfqtntpzKkaELhpbCjTezDOxqMyIEDrGF9VGWPBVA9gOxnNUipmn1r+Zp7nKnMlqtS1vqHIz1XblqflQFZSaq+0xq8ouV+1rKgAtVnXMLTDx1Sn16CpgzVPbsbxUhRtjG9R23xHk5Em7Tn8VrPw95aqnk79yBhNePkCHqdN5YtpkHhmQytx757Cryu0jlSyt6X99LNlffM22KrkEPYOvxr3Ict8/8fq693nhtam8vuQOmPEory/LVwWcZOxPVwmxEQ3NGg1ueIF56//KNU1MmCIjCdMPceigMbCu4facgSkinFAtn6z0YuxNYghpGENkgyI1ryoJD3eFPG/a0jO38fOvGh1Gj6JzlK969c34xzSlUZB6oS1WLKcZwFuaX8+4F/uQMWcmS5LdnUeLGMzoB2JYN24sr81dxfZNm1k163neWmqi2239CDf6jbUjIyYNxr5yGmNv/Ssf/+c71q9cw+qPP2LZxjy1tb91urYMpob+OFOL6fzqIhanbmDphr/z4A1NPcHX2+PjZvK3YW8Q6J6CbPhWWWf8Cobf8hyPdF3N9Ce+Ieuk35WTnat6hBBCCCHORzUIJidkqcG8cQZC0zSi1MDSCB7lmu46Y9JchQyj0lizjk2tN8LB0TN8c5uuxtHGKpvJXSBYDbRUnqBcLU/2POcMT3WpWFfoOSNitNtQbYOfqqeBemzUs/ssA7RshwomKtRMzzExR/00ygarcDRApRIjcHmvhKSZTzF7bSzXjunO4dcmMn+nEd1+y6fjlfSNy2TVoi2ucHeChn9UU6Lt6az5v8/Zka12qNxOq5tuoHsTYwSqU3DgIMeDo4gMDKLb4C74mBO4pH9DfNXAOPTIAVIrbn+owfZUz0HilBHc1G4Yb649XUqspi1HIvPuncZPQSpw7d7AquwtfLNhlqrPRElm1m/O4Pi3vZ3Jnz9Lix+fZ9ykzVRkKZ+2Hbg4IJA+s1ewMmsLq1zTKiZcZ8cUHUWYevFNMe1JiC5n+8JvXH2rOmdqy+Dc/xHjOg/k2ibdGNB6FLNWNeT6d+cwtm+Vm99dqjs+PnR8cTFfp67lG2NK+ZT7e1acIlSvemhf7pvYjs0TXmfdsbP19nNVjxBCCCHE+el3BRNj2FN1vJ9XrrkG2UFqUB+vwojxba1djZmaq7CCrp8xmBh1nLTKM6OqqOE1+u7LsyoqMM7CuKh6qttBqwpFHf10rlCT8e+iGHmkVA1qC9yrvWaK6UL3BAv5OQ6aDx1C69Per26hzQ0DiTq8nG/XnxIU/Lpx91t34PPWWMZP+4iPJz+rBp5jWKJdz+PP9nGdwSnfu5eDehQx7S6jX8+d/GvGdi6+9nJat4hBS1LrVECr4N32nJkzI5Ns3U5YpD9aeR4ZqTk4NJuaVxWpQHGsysC/uraKts5nfLdLGdTqam7r2J+rLn+bfXopiet2qWF9BQ1bl7uYvuQRYr4ex4P3fcmhquN8I+SWp7HkzlsY2fvGE1P3a/nT0H/wq1GR7nT1Kaezau88nWraOomTorSfWfrUSyxJi6LfDe1d4dn741POnr8/yoNX38EDxnTN43y8/cTBsw28gf4xYfR/tyJwbWDmXY3w6fAg76fO4frIioR8ruoRQgghhDg//a5gYoQO40yJU43/M9WkxoOun0191XL186tijRI14O+qyhmXTB3x5ITqHFP1lKifxv0fCTXYslCrThO1PbqucUi1VexU4UgtN6s6uquwZAwkjZuzq26GSW3fNXYnzwTp3KpCSQu1/lCZxif5GlPVdNDLbXbxb82IuU/TYft0xvSdzPro0Yyf3BvPrSInWNvT/7pIMhYv49QTGKbQeOIalZGWdLjy/gc9dwdbdxRjaxyFXe2LnrWXfVmRtHvgBtpvWsIn737Bri7XMbxvEzJ3/Xri7IO323MWrkuw9ppoO6Bn5fO04B706GLiwLptHK9xWw4K0lNJO2Kn/wujSchexscLMyoDrinySsZ9cC+hnz3Bw499S0aVkGVw7NzOnrJI2rb3JX3Pfg5UmVKSs139xnloF4npZtoNvYKIsyTb6to6LZMKRlX2yevjo3pd/t5tbPlhA5uN6cdtpOae6FyFX05mVNfrGVEZtobx0oKjOBI/4Km+E1hh/GK5nKt6hBBCCCHOT+bG1vCJnscUDYnD/4sDnjkPNei6yNc98G+sAkBbNcq/XP20qfmMUhPLyozvcjWaqGUt1eA5t1RjiRp0h6uQEq/msx0mVqmBn8oMnno0UlSZJDVOsqvQ0EOFF6cKL6tUKHCoZVZVf3P1vNZWaKOmi9QA0/h3PHIcGhvVZNRzsaq7sfoZpsq2V+0af1lLLWJvsYnvjLZUMCk16ySo5zZT6/qr4NFWPVZPoUS1tdq1zdDFX22nqnCLClKLikyu+00Oqeee+B7aGwF0mDibZ3psYsrNs9iaupstB+O5ZcJtRG1dwuq9J24ksfT+fzxxdwjfjZ/FWuPu/yr0ojKirrmVa/tGkbvvMMXWcFpe/wD33XcRR//9Bh+uPqqCVyGhfUdz66AgfnxhCks3J6N3/QsjBprZ/NYslv9ipB3vt+esnNmklbRj6CNDaWvK5LhfS6588UmGRm9mzsPz2O0aFHvXll9UPC3bt6XztcO4e9bz3N7mAPPueIaFiRXbYqHt07N4IGEdbz2/ktzghoSEu6dg/zJyc0rR85M5HNiPWx+6ma4RTkq1AELjWtJuUC8iMneRmqO2pzyd5OMXMeQvI7iyawPVDyzYwqOJbdeZ7q0c7NlzTA3vvWgLKwl33M/ANjb8g8OJSujO4PGPMaxzIcteeIMfk1UH8ur4VE8vLSDn6PEqUy5Blw3nqsiNvD9jJRledsZzVY8QQgghRG1REcB7OWrQboQJ4y9B7VGD+ffVuNL1ZbMagyWrgY8xFNuuBvdlxmDfGLup+RRV4OQh+Fmo5y0v0PhKja+zVW2RJh27WpylAsk+FShcQz31vzRVZ7qq1KzWR6s9KFZtry40Ma/EvQ2GzWr+3SKNtaqujSUaazzbYZzlcdejsTTfxEu5Gp+o9aleb+TJfLvewxP3BPLNo9NYafwZMVX70c+mM3uZjcEv3UP7ysuafOlwY38aHljOt1tcR+1kjt38a8TjfLjvIu6YN58P1n3AlMdakfq3x3lm5h73MdTz2L0pGUfKl3z6TZ6aP86P/1xGZkkSu7a675Dwfnuq4+TIvKd5/Jm1BI6cwPQPJ3BtyFr+dsszfHHQfbC8a8tM8/tm8feFUxnzp4sp+upVHuhxB2+tOl75WmGKoE3XKCzRQ3h25adq309M/zdjoOfPORfy8wt3MvbJ5RT3voMnP5jDzPlTuHdkTxo3cBVQnKT/+wnuuWU2W6yXMur1mcz87O9MmXE3/btHucK0V21pNmxRLen3xAu89Ol7vPaPRxkUtot/Db+LN76vuMiv+uMjhBBCCCG8p/W0t6kcH2bPvpzQ+1d65jzUQO26QCe9TRo/5Gl8cYF882qcZTH+XKpr59TjPjYnV/uoAFVk4h0VYP7woaN/b8ZtnU3H+cMZMXFnDc/KCCGEEEIIUbfV6IzJhULTdIY1cPJ0oM5ddp0HVLAyQolxD8pGz5mcP5rfpVdxaVgK33+aKKFECCGEEEKIU9TRYAIZDo1SFVCamnWMP0h0SM0vKtDYXCtX2fjT5ca+NEj6hm93SCwRQgghhBDiVNVfyiWEEEIIIYQQ/2N18oyJEEIIIYQQ4sIiwUQIIYQQQghR6ySYCCGEEEIIIWqdBBMhhBBCCCFErZNgIoQQQgghhKh1EkyEEEIIIYQQtU6CiRBCCCGEEKLWSTARQgghhBBC1DoJJkIIIYQQQohaJ8FECCGEEEIIUeskmAghhBD1kWaj9fCHePiudvh4FgkhRG2SYCKEEELUR1oQ7UaO5obLYzB7FglRc2bC+t3L5O+/Zmn6Zr47+C3/XjaNoQnSq0TNeRlMrBRH9+Fgt+Ek9R7O/g59OB7o61lXA6Zg8poPIrnHKH7t9SdXPceC/DwrDRrl9pZktrmO/T1HkuQqcznZwf6e9edSzdvSA1pzqPufSerYgVLNs9BgCiI/7gpSuo1Qx2ckeztfSUZECE7P6npPffgl3DuFd3auZWXmWhZ+O5VhXRuoV6CGvKmnPpepq87Vvp9vr9e5KuPhGz+EZzdt5JOXO5/x229vytQ5NTiGZ+VNPX6x9J34Bu/vXs+qoxv5YsM7PDa8FQFVC9Vwe3zb3M6re37mh1X3EFd1nOdNWy4a/vGXcesrM3lr47csO/g2N0TVeO/rL+k/1fYfLfRKHvm/+2mXtYi/3vb/+MvtzzHnH9/z6xEZBYma8yKYaJRFXEZas2hMGWuJTlxLoCNaDej7kOt7pl+F0/GlIP5K0sM17Hu/osmOVQSXRJCV0JccP89maIHkxXWk0JFCwz0riNmzGRuNOXpxL3ItNWnLCzVsS/drxaGEjpTop/6imSlsOpDDjXwI2L+M2J+XEX7MRH7LgWSFWDxl6jMTjYa/xKtTe1MwfzLjhk9maU4vxi6YytWNa3LCzpt66nOZuupc7fv59nqdqzLqHahhawY+O4O5q6YyuLn1tAMUb8rUTd4dw+p5U48fnSa+xaSRAfz41Bju7DeGmV9ZGPDGbMb2D/CUqdn2+MTfxKSF99PCWYruWebmTVsGX+JGTOOfy8fRw7SdxROe5tFrp/J99sm1iTOR/uNN/zHFtaJ5wGFWTH+X5d9vZfuPP7Fy/lJ2ZEk/EzVX/W+WFkJO4xjIWkfkgb3YsvcSphK2XYvhWKMQd2f3bcbhbqPY37IJ5a4nKZZY0ruOJLlZpPvMgTmGnHA//NLWEJaVgW9eKiF71hNY3ohjkZ569FyCd35C7J6tBGUfIuBoIuH7k/Axh1Nsq/JRqvlRFNWb1E7D2NtrJHu7DiE9JuJE2y4mHMEJHEkYyr6eo0jqPYq93YZyKCa0Zm0ZzJEqsHRCP7yC8OySkz/U1fEpDLXjk7GFhsZ+5R8hKHkTgSVqGwMDT34z0EK55LVFfH3wM568OrR+DA58WnHd2Etg8ctMmPI5a5d9zrt3vsJK7RJuG9XSdfmAKfoqJiVuYcHsvoR4DooW3p/ndm5i/svdVF9TC7yop16Xqau82Pd63X/U/5vfPZ57+xby5Z1P8vG+031D6U2ZOsqLY3ju+k8Leg6MJuOjN5i7aAtJP2/im0kzWZrakHY9Yz1lvHlN3bSgrtz7/liC3hnL9C9yPEs9vGlL8e12Py9OCGHhkJt49PH3+PKLdezYmsyxEk8BD3PnP/PXDT/w3dFNLN30Do/c1kINXaswhdBuzERm/bScbzI28fX2eTz/QCeCPcerzpL+c/b+Y+nGo7t+5seVdxPn25jbl29jTd5ONW3lnb80OTHArK/9R/wu1QcTSwTFfjr+x9NxRg5kX/erOG5Nx5arUxYU7g4dJclEJCWqX8ZLSY8MQtcCyIvvRZ5jJ5Ep6e5GzFZVVsdUWuUd0XkUv0Idh63KZU+6s8qAXcPpa8PpzMNSXDHEN1McO4i02BCsh38iescyGh0upKjpANIb2TxlNBxhl3IwoTOFeiqhe78nZtdyGiUnYs/NP1F/tW0pxr606ENeoQpmaVkn/eK76IVYisopD46l2OyuTfdTx8xaosJXlbYMPrF0GRBPUHAzevRp+tu66iAtvCPt453sWKZC6B2zWfzrXIY1Ws/ajU6a9mjvemNyHvqaV8Z8ROktL/Lc6Kb4mCIY8Op4+mf/kxcnbSBfvRze1FOfy9RV3ux7fe4/UE7StOHcPPBZPlieSulJ34RU8KZM3eTNMTxX/YfyDFKTy4jo25/Wga4XB0uzTrSOOM4vG1NdX5x595oqpnD6zXiJfr9MZfyMHRSd+pp50ZZxyU+fscNoWtqAK/7vS75KW8OS9e/w+KjWnPrdm+ZTyO53pvDMsHG891MDrv77HB6/Otjz+eVHwjNvM+vplqS8O4lHB9/NlHczaTfxTcaPjPJiEHHhkv5TTf8p284/hlzP8D8v4HBpGov/PJTbulyjpht47v3DnnFd/e0/4veptk/o1gDVSUsxlzjUwN1OucVOmY8Dc1kZusUfh6uD6piPb1IhJJei5peT0exSMkLyaJi0Db+K0xhlGfgXaRRFJVBkNYbkJlVfEA4fo4LTD9F1v3iOxDXGJ30TDSrCgqU5R6PtBOxfQUR6Kv55R7CnrSYsW9UdEeveHvXGcCyuOc7j62n8y0aCM1MIOH4Ie2YiQXml7npOcdq21NuyI7wnmYFpROw7gM+pv9wuhQTtX4vN1JrUzoNJj+9Datu2aAe/I/zYKW2V/cy8e6cyd9pLvDhjGw7P4rrMFBFOqJZPVnox9iYxhDSMIbJBkZovhPBwQlwvvU7+yhlMePkAHaZO54lpk3lkQCpz753DLlXM4E099blMXeXdvtff/uOi6yefmT0db8rUQd4dw3PTf9Az+Grciyz3/ROvr3ufF16byutL7oAZj/L6snzv61GfjeG3PMcjXVcz/YlvyDrdCS4v2sLSli6XBJC5fTkfP/EQY6+6j79+Cv1m/Z3Hr6kIHW6O9R/z9ttfsWbFchY89DhzN4Yy4L6rCFcjBC1iMKMfiGHduLG8NncV2zdtZtWs53lrqYlut/VzlamrpP9U13+KObZ/PwcO5FCml5F7YB8H9qh5NR057h7h1Of+I36fGnQJJ74pX9Bs4xLCcivSRlXl+KWtIiwniJzoKCwHfyKkoEo5PZuQpHXYzGoA330ESZcYN4n3JydAQysr+s2G6LbWHGrXk5Kc1UQnH6lcr9vCKTZZKWgxjF97j/JMt5He0ILua3MP9q2qjNWJX9YBLF58Gp+pLXyakNU0jIDkzdgcZ6pIw2lVActUgC19H35qAzTjjwWEt6TwN/fgOMn+6UPemTyfrRmne7eoyxwkThnBTe2G8ebaMs+yqkpImvkUs9fGcu2Y7hx+bSLzd54uRFZXj6E+l6mrqtv3+t5/xNlVdwzPRf/R8I9qSrQ9nTX/9zk7jOvwy+20uukGujdxjRirOHM9Wmhf7pvYjs0TXmfdsTN/7lTXlmaLILyBk4NfLWD599tJ2r6V76dN5aNtwVw2rBdV7yQ4iTONn9cewtz6IuJ81Mdg2w5cHBBIn9krWJm1hVWuaRUTrrNjUp/1YfViYCn9x+v+cwrpP6Kmqu0SWmkhZjXQLvdV71B6KT4lxj0WFsotFlegqHoWQbc2otBmwuxwUhLWnJJTajflJxK1eT7x6xcSt+k/NN+6zagZ37wsVWcFNdC3tyO1bRcc2atokrTv5HChGSXzCdqzmNgtn1VOTTcvoumOHfi6ynqeoFd94umcvS1naEvyfP3Ja1URgkaQGhmA09aJAz0HkWNV22JqRFbLBNf9J1EHEwk+8AONNy+jAS3IjG184hK1esqZkUm2bics0h+tPI+M1Bwcmk3Nq7e1zCyOVcmuppgudE+wkJ/joPnQIbSu8s7nTT31uUxdVZN9r4/9R5xdTY7hf9t/8OvG3W/dgc9bYxk/7SM+nvws9/ccwxLteh5/tg/G33v0ph7bwBvoHxNG/3crBnIbmHlXI3w6PMj7qXO4PlJ97njRll5WRrluIii0yl9sKj9C+mEnlrBQ7Gf89NfUx6x6RsVZNvVYK09jyZ23MLL3jSem7tfyp6H/4Nc6fOpf+s/v6T+nqMf9R/w+1Xetskz8ijWKg6Pd1x0afKIoCFTxJDfzRAXmhhy7uAfFBRtosnUNAb5tOdysynMqOTGV5mEptZIf15ZiRzLBmUWedYo1jiOtO1J+dCWN96X85vIprSALP91Gsc2MpSgHa9WpuNj9C1R6FN8yE8XhsZRV/kadRjVtmY6uUQHqU5pWBqAlNMpUbRTtInrbauxl6gmWEEqtTtV+lftJyjPxL3Dg9LPjPKl9E6G9b+Xu526nY4S3v9UXNj1zGz/vNdF2QE88l7KiBfegRxcTB9Zt43jFMfdvzYi5T9Nh+3TG9J3M+ujRjJ/cu/I53tRTn8vUVV7vez3tP+LsvD6G56D/mELjiWtURlrS4crPPT13B1t3FGNrHOUayHlTT+GXkxnV9XpGVA7ihvHSgqM4Ej/gqb4TWJGpe9UWxfvZux/ieneqvCkbSzOatzBTkHyQ42f61swSR9c+0ZT9vJN9ZeDYuZ09ZZG0be9LuucynYopJTmbU+6jr1Ok//yO/nOK+tx/xO9jbmwNn+h5TNGQOPy/OOCZq1CMxRlOTuOWFGtFmE0h5MV1J8f3CGF7d3nuIbFQFHcFRwKPELlzM/6lx7CVBHM8rjWO/L3Yi91dX7cGU2ILo7DhRRxt0YvjtlxCEn8guKgiMpsoiu1PVsBhwg8cxGT2p9zinpxmFWgc5Sp552IxN+FY41YUWY3nWCj3D6EoJAqH4yhWoyq9AGt5KDnRbciz+6rAYMZptVNqa0RhgBPfIiPAeNGWXobZUVJlKsUZ3Jo86xFCUw+6z644nTgaXkxOsB1zcQEmUwAlDTuRFROKOWMLITlFJwKLpQN3LZnBqGv60Mm8hoUr0uv+GRVnNmkl7Rj6yFDamjI57teSK198kqHRm5nz8Dx25xoHMYAOE2fzTI9NTLl5FltTd7PlYDy3TLiNqK1LWL232Lt66nOZusqrfa/H/cfgF0rjlo0Ja9SMrrcOpOnRzazfW47dp4jcfM97qzdl6iKvjuG56T96URlR19zKtX2jyN13mGJrOC2vf4D77lOfd/9+gw9XH0X3pp7SAnKOHq8y5RJ02XCuitzI+zNWkqE+Tr1tK8OnO0PvHkiL0mQOFoTQaezT3H1FAZ8+Pou1h9TrrgWSMHwEPUKP8OuBMsIu7s6QSeMZ1SObhQ9P4/sUlUzykzkc2I9bH7qZrhFOSrUAQuNa0m5QLyIyd5Ga4+mHdZH0n7P3Hw9TdC9uGtmcA/Pms+HwKf2hPvcf8btoPe1tKntF9uzLCb1/pWeuKl+Ko7uTERNLqUWlmYIUQvatJzjPnXX1wC6ktI3Hd/diIrPVL6FBdb7c1kM54v8rjbeux79cozjuBg5G++JTmI3/8WQaHEpSIabK0Fyzc6zdTWQG/fZsgin7R5rtSnLfJq/5URzZkaORsRT5B6Abl5gVpROS9B3BBRW7Y6YspA3ZMS0oCAyk3GTcy5KHb8Y6opPTMHvb1klUmIm/mbTA3cRu24bV05TTL5bsZh3JDQ7BYdIxlxzDP3Mb4Skpp1yGFsolf53LhFs0lo8ZzfQvs+vHDalaAxLGjOPhv1zBRRGqn/28gvnjpvGfDTmu/fft+jDvfXkNv/z5FqYuPeY+JqYIBv97EU+3+oyxl77CNuMmwmrqcanPZeqqava9vvcfc6eH+Ne399DspH8x0UnWe/dw48NrMK5A96ZMnVXNMTyX/ccS15/RU+9jSN+WhAU4KUhLYtOHb/H6y99xuOIge/O6n8SHzq9+zczuHzGq39sku7/n864tU0M6/2Uc9999Ga0iLeTvXceSF6bwzhdpuIaVWjA9J0zn/lta0zgyCGt5Hoe3rOTTqTP5cGXGiSseTCG0/X8PcOed/WnbMgx/Zz6Zezbw7/se5ePtlaXqJuk/Z+4/HuYuj/Lvr69g1ZXX8eam0/SH+tx/RI15GUyEEEIIIYQQ4n/nt6cLhBBCCCGEEOIPJsFECCGEEEIIUeskmAghhBBCCCFqnQQTIYQQQgghRK2TYCKEEEIIIYSodRJMhBBCCCGEELVOgokQQgghhBCi1kkwEUIIIYQQQtQ6CSZCCCGEEEKIWifBRAghhBBCCFHrJJgIIYQQQgghap0EEyGEEEIIIUStk2AihBBCCCGEqHUSTIQQ4kJhbka/Z8Yx/IoQNM8iIYQQoq6QYCKEEBcKn5YMeOR2Lr0oQIKJEEKIOsfLYGKlOLoPB7sNJ6n3cPZ36MPxQF/PuhowBZPXfBDJPUbxa68/ueo5FuTnWWnQKLe3JLPNdezvOZIkV5nLyQ7296w/l7xsSwshu+Of2XPp6CrTKNIiLJ4CiimI/LgrSOk2Qh2fkeztfCUZESE4PavrPS2IhHun8M7OtazMXMvCb6cyrGuDmg+svKmnrpbx8I0fwrObNvLJy53x8Syr82pwfM7qD3u9NAI73chD//mYRQc3serIahZ8O51Rl4ed9g33D3lNA1ow+JV3+HC/2p6Mn1iwfCq39QqpH99MXXD9R7kQy9RV52rfz7fX63wrI4SHF59LGmURl5HWLBpTxlqiE9cS6IhWA/o+5PrWpFv5UhB/JenhGva9X9FkxyqCSyLISuhLjp9nM7RA8uI6UuhIoeGeFcTs2YyNxhy9uBe5lnPchb1uy0K5j47fwa9puvlTz7SYiKMOz3ozhU0HcriRDwH7lxH78zLCj5nIbzmQrJAq4aXeMtFo+Eu8OrU3BfMnM274ZJbm9GLsgqlc3bgmwyJv6qmrZVQva9iagc/OYO6qqQxubq1Hb+jeHZ/q/YGvlzmWqybdR6ecFbw3ZixP3PU3Npj7MGbeeAZFnHjl/rDXVAumz2tv88zNJr599C7uueZpPknrxH0L/sqNzc2eQnXVBdh/LsgyddW52vfz7fU638oIcUL1vUILIadxDGStI/LAXmzZewnbvR67FsOxRiHoRhnfZhzuNor9LZtQ7nqSYoklvetIkptFus8cmGPICffDL20NYVkZ+OalErJnPYHljTgW6alHzyV45yfE7tlKUPYhAo4mEr4/CR9zOMW2Kh/bmh9FUb1J7TSMvb1GsrfrENJjIk607WLCEZzAkYSh7Os5iqTeo9jbbSiHYkJr2JYFp1nHp1Btc+Exz3QcS7mrFtfxKQy145OxhYbGfuUfISh5E4ElahsDA91tVdBCueS1RXx98DOevDq0fgwufVpx3dhLYPHLTJjyOWuXfc67d77CSu0SbhvVUsU69UpFX8WkxC0smN2XEM9B0cL789zOTcx/uZvqa2qBF/XU2TLq/83vHs+9fQv58s4n+XhfPToX58XxOe/6T/kBFtw4mDvvfovPv/yJdUvm89rTn3LE1p52rSvOiXj5mgY0Z9DLFWc6fuSjxXdSWYWHFj6Ip35awddHtrE6eyNfbHqPJ0ZchH/FG0zgJQwZGkrirBd4d9EWEtevZP79L7OsqDM3jbrYvc111YXYfy7EMnWVF/su/ecclBGiiuqDiSWCYj8d/+PpOCMHsq/7VRy3pmPL1SkLCneHjpJkIpIS1S/jpaRHBqFrAeTF9yLPsZPIlHR3I2arKqtjKi0x5tycR/Er1HHYqlz2pDurDNg1nL42nM48LMUVQ3wzxbGDSIsNwXr4J6J3LKPR4UKKmg4gvZHNU0bDEXYpBxM6U6inErr3e2J2LadRciL23PwT9VfblqL5U25yYFL7VG4+zeHSC7EUlVMeHEux2V2b7qeOmbVEha8qbRl8YukyIJ6g4Gb06NO0XvxCauEdaR/vZMcyFULvmM3iX+cyrNF61m500rRHe4LVAXIe+ppXxnxE6S0v8tzopviYIhjw6nj6Z/+TFydtIF+9HN7UU1fLqJEuSdOGc/PAZ/lgeSqlJ6Xdus2b43O+9R+DXuao8kWJRkB0I2yOg6QcqFjqxWuqhXDZa28zfkQDtr48jidGTuHjjfn4eNqooB9PZPn0F3jqmj9x51UPMeeHQK56/TXu7OY+Y6vZ7Nh8dPKO5p74oqRwF7t26cQktCDAs6guuhD7z4VYpq7yZt+l//z3ZYSoqtpgolvVgJxSzCUONXC3U26xU+bjwFxWhm7xx+HqVDrm45tUCMmlqPnlZDS7lIyQPBombcOv4nO4LAP/Io2iqASKrMaQ3KTqC8Lh+pQ9/RBd94vnSFxjfNI30aAiLFiaczTaTsD+FUSkp+KfdwR72mrCslXdEbHu7VFvDMfimuM8vp7Gv2wkODOFgOOHsGcmEpRX6q7nFKdtS9EtPlDqoLD59ewzzs50HkhWmApfnvXqE56g/WuxmVqT2nkw6fF9SG3bFu3gd4QfO6Wtsp+Zd+9U5k57iRdnbKPiYrC6zBQRTqiWT1Z6MfYmMYQ0jCGyQZGaL4TwcEJcL71O/soZTHj5AB2mTueJaZN5ZEAqc++dwy5VzOBNPXW1jIuuV+lz9Yd3x+f86j+nsqj3jnEv9iFjzkyWJFc5M1LNa2pqPJhhN4Wy46VHeWXOctZ9vZQFkz5ie5mnQIWyFDYuWsWWDTtJXL+axc/M4YfCGNr3iHS9weuZ2/j5V40Oo0fROcpXxSQz/jFNaRSk1lqsnOurZM8nF2L/uRDL1FXe7bv0n/+2jBBVVRtMTnDim/IFzTYuISz35Ium3MrxS1tFWE4QOdFRWA7+REhBlXJ6NiFJ67CZ1QC++wiSLjEG+f3JCdDQyop+syG6rTWH2vWkJGc10clHKtfrtnCKTVYKWgzj196jPNNtpDe0oPva3IN9qypjdeKXdQCLF6O5M7Vl0IoTid70Mc3XzqPFhi+JyPHneKtBZARX3D+i4bSqgGUqwJa+Dz+1AZrxxwLCW1L4m3twnGT/9CHvTJ7P1ox6dDmOi4PEKSO4qd0w3lx76sjKUELSzKeYvTaWa8d05/BrE5m/83Qhsrp6DHW1TH1W3fE5H/sP+Le9ncmfP0uLH59n3KTNqI9ir5kvuoh4czo71x0+cUb5NEzhXbj1jXd4f8cqlqX+wKern6SHv3oX8rO6CzgSmXfvNH4K+hOv797AquwtfLNhltp2EyWZWa5vdOu+C7H/XIhl6qrq9l36z7kpI4QXwUQrLcSsBtrlvj5qBF+KT0mJGnhbKLdYXIHCp8qHmm5tRKHNhNnhpCSsOSWn1G7KTyRq83zi1y8kbtN/aL51m1EzvnlZqs4KaqBvb0dq2y44slfRJGnfyeFCM0rmE7RnMbFbPqucmm5eRNMdO/B1lfU8Qa/uE7eatk6io5VkErhvLQ1KbeSHhbtbMTUiq2UC+uEVRB1MJPjADzTevIwGtCAztvFZBxT1gTMjk2zdTlikP1p5HhmpOTg0m5oPADUoOlYlu5piutA9wUJ+joPmQ4fQuso1Jt7UU1fL1Gc1OT7nS/9x07B1uYvpSx4h5utxPHjflxyq6WexeoMxLjbVTGc5pWFqzA1zZ/NAvyJWjH+MsVfeydMPfciugpPfyIq2zmd8t0sZ1OpqbuvYn6suf5t96v08cd0uNVyouy7E/nMhlqmrarLv0n9+fxkhqqo2mFCWiV+xRnFw9Ilrpn2iKAhU8SQ380QF5oYcu7gHxQUbaLJ1DQG+bTncrMpzKjkxleZhKbWSH9eWYkcywZlFnnWKNY4jrTtSfnQljfelnBR8DFpBFn66jWKbGUtRDtaqU3GxO+CUHsW3zERxeCxlZ/lMr66t03IFoyosIZRanar9KveTlGfiX+DA6WfHeVJxE6G9b+Xu526nY0T1h74ucF1GstdE2wE9UV3GRQvuQY8uJg6s28bximPu35oRc5+mw/bpjOk7mfXRoxk/uXflc7ypp66Wqc+8Pj7nUf8xmCKvZNwH9xL62RM8/Ni3ZPyO0b9j53b2lEXR9Yp4zvj3/SwtadvZj33vv86/Fm1g9849/LJ2F+lV75Or5KAgPZW0I3b6vzCahOxlfLwwo05/eXIh9p8LsUxd5fW+S//5r8oIUZW5sTV8oucxRUPi8P/igGeuQjEWZzg5jVtSrBVhNoWQF9edHN8jhO3d5bmHxEJR3BUcCTxC5M7N+Jcew1YSzPG41jjy92IvdscT3RpMiS2MwoYXcbRFL47bcglJ/IHgoopPbRNFsf3JCjhM+IGDmMz+lFvck9OsAo2jXCXuXCzmJhxr3Ioi15UKFsr9QygKicLhOIrVqEovwFoeSk50G/Ls7muqnVY7pbZGFAY48S0yAowXbannFUd2JM9mRffxp8wWSW7TbhwLdBB4YLPaL/WR7nTiaHgxOcF2zMUFmEwBlDTsRFZMKOaMLYTkFJ0ILJYO3LVkBqOu6UMn8xoWrkiv+2dUnNmklbRj6CNDaWvK5LhfS6588UmGRm9mzsPz2J1rvCsF0GHibJ7psYkpN89ia+puthyM55YJtxG1dQmr9xZ7V09dLWPwC6Vxy8aENWpG11sH0vToZtbvLcfuU0Rufh3+ztur43Oe9R/1ntT26Vk8kLCOt55fSW5wQ0LC3VOwfxm5OaXus63VvKZ6/gEyQgdy+4PXcrE1n0JzEJFtunHZDR1wfvdvvtyQp+rRiRp0CwO7BlNwMJtyWzDh8R3pM6wXAev/w2c/HXO15RcVT8v2bel87TDunvU8t7c5wLw7nmFhojo2ddmF2H8uxDJ1lVf7Lv3nvy4jRBVaT3ubyl6RPftyQu9f6Zmrypfi6O5kxMRSalFppiCFkH3rCc5z/4UtPbALKW3j8d29mMhszwedFkBu66Ec8f+VxlvX41+uURx3AwejffEpzMb/eDINDiWpEFNlaK7ZOdbuJjKNmzJPYcr+kWa7kty3yWt+rsBwNDKWIv8AdOMSs6J0QpK+I7jyEgYzZSFtyI5pQUFgIOUm416WPHwz1hGdnIbZq7b8KIztTVZ4BKW+fuoDvhif/MMEpW4mNDuvMnA4/WLJbtZRDUBCcJh0zCXH8M/cRnhKyimXoYVyyV/nMuEWjeVjRjP9y2z3AKWu0xqQMGYcD//lCi6KUP3s5xXMHzeN/2zIce2/b9eHee/La/jlz7cwdal7IIUpgsH/XsTTrT5j7KWvsM24OL+aelzqaBlzp4f417f30OykPxXrJOu9e7jx4TXU6St2qzk+513/McVw69IveLj3b89zlC0bz3U3L3R9S+jVa+oTQdcHH+Gu0ZdxcWwg5tJcsvYmsmzi47y17LirPUtsX+6Yci9XXtKciGArjsI8cg+nsGbaY0xfYHz5YabNpM+YfU8Djv66m59XfMWnb33GtsP15DrvC63/GC7EMnVVNfsu/ecclRHCw8tgIoQQQgghhBD/O/XjRgchhBBCCCHEeU2CiRBCCCGEEKLWSTARQgghhBBC1Dq5x+S/sCZvp+dR9XoFJngeCSGEEEIIIU4lweS/YAQTbwKHt+WEEEIIIYSor+RSLiGEEEIIIUStk2AihBBCCCGEqHUSTIQQQgghhBC1ToKJEEIIIYQQotZJMBFCCCGEEELUOgkmQgghhBBCiFonwUQIIYQQQghR6ySYCCGEEEIIIWrdeR9MbGadDladrmbQPMvCfdS8r04riVVCCCGEEELUCef90L6ln87tATrdLbo7mGg6l6j5m/114iuSihBCCCGEEOKCJucchBBCCCGEELVOgokQQgghhBCi1mk97W10z2OyZ19O6P0rPXMndA1wcqkPBKkY46tKFzg1dpRoLCuFYrW+t93JdWaN/+RqbK6sDfysOs8F6CQXmZhbAp1UPb1VPaGaqketL9I1dhZrfKHqUatdrGa4xl+nnVnHpNYXaLqrfIoq95aanGp+aKBOT7Utx8rBosob25RSqvGpWp9Z2b6qww/6qG2IVM83rvrKc8Jetd0LVVld/ddDbZvdYWJDGeRW2W5vrcnbSa/ABM/cmXlbTgghhBBCiPqq+jMmakQfrcJEpCrpKNdIUZNVhYbeKmSMUOnCNeBXg3pjXO+nZox1nVUYiDYeq6XG+gIVCFSWIUbVE6PqKVeBI00ts5h0uqtwMFAtd1GhY4jNSTcfHVUNGWqyGxWcQZBJI0eFEyMcxat08mc1WV1rVOiw6dzupxOjaSQ7IE3VFaJCzEU+GuoHmvpfDwsMVPsxLkhnlApDF6ltO0tzQgghhBBCiP+R6oNJJY1thRpz8jVmqyRQqpbE+zppqkbyuSpkGIxQEKfCwc0qbPRTg36rp/Ycz3o3jS0FGm/mmVhUZkQIndYqmBhhwVcFkg7Gc1SKmafWv5mnucqcyWq1LW+ocjPVduWp+VAVlJqr7TGryi5X7WsqAC1WdcwtMPHVKfXoKmDNU9uxvFSFG2Mb1HbfEeTkSbtOfxWs/D3lhBBCCCGEEP97NQgmJ2SpwbxxBkLTNKJUEDCCR7mmu86YNFchw6g01qxjU+uNcHDUOJ1yGunl7jMtNpO7QLAKFCpPUK6WJ3uec4anulSsK/ScETHabai2wU/V00A9NurZfVIoOlm2QwUTFWqm55iYo34aZYNVOBqgUokRuIQQQgghhBB/jN8VTIxAUHW8n1euuc6gBKlBfbwKI1lqpV0FlOYqrKDrZwwmRh0nrfLMqCpcZ1C85748q6IC4yyMi6qnuh20qlDU0U/nCjUZ/y6KkUdKVaApcK8WQgghhBBC/AF+VzAxQodxpsSpxv/Gzea6ShjGz6a+arn6+VWxRoka8HdV5YxLpo54ckJ1jql6jJvgjfs/EmqwZaFWnSZqe3Rd45Bqq9ipwpFablZ1dFdhyTgLE2Ksd5V2M6ntu8bu5JkgnVtVKGmh1h8q0/gkX2Oqmg56uc1CCCGEEEKI/14Nhv+6669v/cWu85C/ToBakqkG8sYlV04VCNLVz4ZqsJ9fBrvVlKjWN1S1H1MhwduzD6UOjTXlxhkTnRsDdcaqqfLG+NPoYtN5MNDp2h4/NW/8xS3X9qh6Vhr3lKh6+qrtfTHYya3Wk3fWCFWBKgBpavs2FLnveflbgXqsnmuc/RFCCCGEEEL8cWoQTIx7STTsPu4QsKdY4/1icBgr1CA/2XO/yPZSjTIVVLaoYGBcqpWiChg/vaKet1yFg69UMshWtUWqoGNXi7NUWNhXbvyJX6MMpKk601WlZrU+Wu1BsWp7daGJeSXubTBsVvPvqsCxVtW1UQWWNZ7tMAKJux6NpfkmXsrV+EStT/V6I4UQQgghhBDnWvX/jokG1wU66W3S+CFP4wsVAi4EAWq7iypCiHrcx+bkah8VoIpMvKMCzLnIIfLvmAghhBBCCHFu1OiMyYXCuBRsWAMnTwfq3GXXeUAFKyOUGPegbPScyRFCCCGEEEKcP+poMIEM414RFVCamt3/8vshNb+oQGOzpBIhhBBCCCHOO9VfyiXOSC7lEkIIIYQQ4tyok2dMhBBCCCGEEBcWrdX791WeMRE1s3vkbM+j6l30r/s9j4QQQgghhBCnkmAihBBCCCGEqHVyKZcQQgghhBCilsH/BwtgIuOuckKIAAAAAElFTkSuQmCC;" vertex="1" parent="1">
          <mxGeometry x="11" y="1130" width="806" height="103" as="geometry" />
        </mxCell>
      </root>
    </mxGraphModel>
  </diagram>
</mxfile>
